<svg width="136" height="85" viewBox="0 0 136 85" fill="none" xmlns="http://www.w3.org/2000/svg">
<path d="M11.9395 59.4378C11.5428 60.1739 10.551 62.0838 10.1543 62.9278C9.64421 63.9811 9.37028 64.5078 10.296 64.5078C11.9584 64.5078 13.772 63.2133 13.772 61.3604C13.772 59.2791 11.8923 57.5278 8.12343 57.5278C4.35453 57.5278 1.39798 59.6091 1.39798 62.4392C1.39798 65.2692 4.24118 66.6843 7.44332 66.6843C9.37028 66.6843 10.9572 66.3289 12.289 65.6817C12.3646 65.6436 12.5252 65.6309 12.6385 65.7198C12.7519 65.8086 12.7141 65.8911 12.6385 65.9165C11.0705 66.6969 9.70088 67.1538 7.30164 67.1538C2.85264 67.1538 0 65.3454 0 62.4772C0.00944584 59.2538 3.92947 57.1154 8.09509 57.1154C12.2607 57.1154 15 58.8159 15 61.3478C15 62.7945 13.2336 64.8758 9.93703 64.8758C8.73741 64.8758 7.82116 64.6791 8.05731 63.8479C7.43388 64.5585 6.68766 64.8631 5.90365 64.8631C4.33564 64.8631 3.58942 64.4253 3.58942 63.3846C3.58942 61.6079 5.94144 59.2855 8.78463 59.2855C9.15302 59.2855 9.69144 59.3807 9.86146 59.7868L10.0409 59.4314H11.9395V59.4378ZM5.65806 63.5877C5.65806 64.1271 5.77141 64.4697 6.22481 64.4697C6.67821 64.4697 7.71725 64.1905 8.79408 61.9506C9.22859 61.0939 9.37972 60.5165 9.37972 60.1421C9.37972 59.7677 9.18136 59.6028 8.92632 59.6028C7.12217 59.6028 5.64861 62.2107 5.64861 63.5813L5.65806 63.5877Z" fill="white"/>
<path d="M28.6769 57.7132C29.3382 57.2577 29.4831 57.1807 29.6371 57.1807C29.8274 57.1807 29.9904 57.2577 30.7514 57.6747C31.1047 57.8737 31.2225 57.9699 31.2225 58.0726C31.2225 58.2202 31.1862 58.2715 30.4887 58.4447C27.8525 61.4285 24.3739 63.1096 19.0926 63.8668C19.002 63.8796 18.9567 63.7192 19.0564 63.6935C21.4479 63.0262 23.459 62.16 25.0987 61.1333C25.0624 61.1461 25.0081 61.1461 24.9447 61.1461C24.6457 61.1461 24.4736 61.0242 24.2652 60.6649C23.9482 60.1195 23.6855 59.8371 23.2325 59.5356C22.1636 60.1195 20.9225 60.5751 19.3553 61.0114C19.2647 61.0371 19.1651 60.8895 19.2466 60.851C20.9587 60.0938 22.535 58.9452 23.6855 57.771C24.2652 57.1871 24.7182 56.5711 24.999 56C26.6749 56.4107 27.0825 56.5711 27.0825 56.7764C27.0825 56.924 26.9467 56.9882 26.385 57.0587C26.1767 57.2833 25.9502 57.5143 25.7418 57.7132H28.6769ZM32.4363 62.0445C33.0976 61.5761 33.2426 61.4991 33.3966 61.4991C33.5868 61.4991 33.7499 61.5761 34.5289 61.9931C34.8822 62.192 35 62.2883 35 62.391C35 62.5642 34.9094 62.6284 34.2843 62.776C31.3855 66.1896 27.4177 67.736 20.7413 68.2686C20.6507 68.2814 20.5873 68.0953 20.687 68.0825C24.0569 67.4409 26.5934 66.6324 28.6044 65.5223H28.5501C28.1334 65.5223 28.0247 65.4453 27.762 64.9384C27.4993 64.3801 27.1369 64.0208 26.6477 63.7256C25.2889 64.3673 23.7489 64.8549 21.8918 65.2335C21.8012 65.2464 21.6835 65.1244 21.7559 65.0988C24.0478 64.2967 26.231 62.9556 27.6261 61.5953C28.079 61.1526 28.4323 60.7162 28.6588 60.2863C30.3347 60.6841 30.7333 60.7932 30.7333 61.0178C30.7333 61.1654 30.5793 61.2296 30.0357 61.3001C29.773 61.5696 29.5103 61.8071 29.2295 62.0445H32.4454H32.4363ZM25.4067 58.0212C24.845 58.5282 24.2018 58.9966 23.4862 59.3944C24.9537 59.5676 25.7418 59.9526 25.7418 60.5109C25.7418 60.5879 25.7237 60.6841 25.6694 60.7483C26.8742 59.9334 27.8525 59.0158 28.6588 58.0148H25.4067V58.0212ZM28.849 62.3525C28.3055 62.808 27.6442 63.193 26.9648 63.5524C28.5682 63.777 29.3744 64.2069 29.3744 64.8165C29.3744 64.9255 29.3382 65.0154 29.302 65.1116C30.5249 64.3416 31.5395 63.4305 32.4454 62.3525H28.849Z" fill="white"/>
<path d="M52.676 57.4855C53.6113 56.7522 53.758 56.67 53.9139 56.67C54.1065 56.67 54.2715 56.7459 55.2252 57.2326C55.6653 57.4539 55.7753 57.5487 55.7753 57.6498C55.7753 57.7446 55.702 57.7825 55.4911 57.7825H41.379V58.3072C41.379 61.1454 41.1865 63.0607 40.673 64.5398C40.1778 65.9178 39.3984 66.9165 38.2155 67.9279C38.1605 67.9785 37.9679 67.89 38.0046 67.8204C38.6098 66.7142 39.0133 65.6776 39.2608 64.4576C39.5084 63.2376 39.6001 61.847 39.6001 60.0329C39.6001 58.8508 39.5451 57.7193 39.4442 56.7396C40.4896 57.0683 40.6455 57.1188 41.6174 57.4728H46.5324V56.7775C46.5324 56.5436 46.4957 56.2781 46.4407 56C48.7056 56.1454 48.9165 56.2908 48.9165 56.4362C48.9165 56.5436 48.7056 56.6574 48.3021 56.7901V57.4728H52.6668L52.676 57.4855ZM47.1559 63.1808C45.4779 63.244 43.9007 63.2187 42.4886 63.1302C42.3969 63.1302 42.3969 62.9848 42.4886 62.9848C45.2486 62.8141 47.7611 62.536 49.5583 62.2263C50.4753 62.0682 51.1997 61.8976 51.6674 61.7269C52.6393 62.3021 52.9786 62.5676 52.9786 62.7256C52.9786 62.8015 52.8502 62.871 52.5935 62.871C52.4559 62.871 52.2909 62.8584 52.0983 62.8078C50.998 62.9406 49.9068 63.029 48.8614 63.1112V64.1479H51.6765C52.511 63.5158 52.7402 63.4146 52.8777 63.4146C53.052 63.4146 53.2812 63.5221 54.134 63.9393C54.5191 64.1226 54.6658 64.2301 54.6658 64.3186C54.6658 64.407 54.6108 64.4513 54.4182 64.4513H48.8614V65.5132H52.7127C53.6113 64.8558 53.8314 64.7484 53.9689 64.7484C54.1432 64.7484 54.3724 64.8558 55.2252 65.2857C55.6103 65.4816 55.757 65.5891 55.757 65.6776C55.757 65.7661 55.702 65.8103 55.5094 65.8103H48.8614C48.8614 66.4045 48.8981 66.9418 48.8981 67.1757C48.8981 67.5044 48.7422 67.7635 48.4396 67.9532C48.1187 68.1618 47.6235 68.2692 46.9542 68.2692C46.5965 68.2692 46.5324 68.2313 46.4407 67.9532C46.2298 67.4032 45.9822 67.2958 44.4417 67.0493C44.35 67.0366 44.35 66.8659 44.4417 66.8659C45.2945 66.8912 46.1747 66.9165 46.8441 66.9165C47.0734 66.9165 47.1467 66.8786 47.1467 66.7332V65.8166H42.7086C42.2318 65.8166 41.7733 65.8419 41.1498 65.8925L40.9389 65.4058C41.6449 65.4816 42.1584 65.5132 42.6903 65.5132H47.1467V64.4513H43.6989C43.2588 64.4513 42.8003 64.4766 42.2135 64.5271L42.0026 64.0404C42.6719 64.1163 43.1671 64.1479 43.6623 64.1479H47.1467V63.1871L47.1559 63.1808ZM51.7224 59.5461C52.3276 59.976 52.9603 60.3047 53.6663 60.5322C54.3724 60.7535 55.1151 60.8862 55.9312 60.9241C56.0229 60.9241 56.0229 61.0316 55.9312 61.0442C55.4911 61.1201 55.1885 61.3603 55.0326 61.7775C54.9776 61.9102 54.8951 61.9734 54.785 61.9734C54.6475 61.9734 54.3632 61.866 53.8864 61.6447C53.4829 61.4614 53.162 61.2781 52.8594 61.0695C52.4193 60.7408 52.0433 60.3616 51.5665 59.78C51.6032 60.4121 51.6398 61 51.6398 61.2655C51.6398 61.5942 51.4106 61.7269 50.8054 61.7269C50.3286 61.7269 50.2369 61.6321 50.2369 61.2781C50.2369 61.0569 50.2736 60.8293 50.3102 60.3742C49.2466 61.1074 48.2929 61.531 46.9175 61.9229C46.8258 61.9481 46.7433 61.8154 46.8258 61.7775C48.082 61.1327 48.999 60.45 49.6775 59.5461H45.542L45.5604 59.9949C46.7983 60.0708 47.3668 60.311 47.3668 60.7155C47.3668 60.9621 47.1192 61.1643 46.8166 61.1643C46.5507 61.1643 46.4315 61.1011 46.1106 60.7598C45.8997 60.5638 45.7254 60.4058 45.5604 60.2983C45.5787 60.9052 45.5971 61.6637 45.5971 61.8849C45.5971 62.2263 45.4045 62.3211 44.7168 62.3211C44.3317 62.3211 44.1849 62.2263 44.1849 62.005C44.1849 61.8596 44.2216 61.2844 44.24 60.6018C43.2863 61.2212 42.351 61.6131 41.4065 61.8913C41.3148 61.9165 41.1956 61.8154 41.269 61.7712C42.5252 61.0505 43.268 60.3932 43.8365 59.5525H42.9837C42.5436 59.5525 42.1493 59.5777 41.7642 59.6283L41.6083 59.1416C42.0117 59.2174 42.3693 59.249 43.0021 59.249H44.1666V58.8571C44.1666 58.579 44.1666 58.4905 44.1116 58.0038C45.7529 58.1365 46.0189 58.2124 46.0189 58.3704C46.0189 58.4779 45.9088 58.5411 45.542 58.6612V59.2554H46.6241C47.0825 58.8192 47.2568 58.7181 47.4402 58.7181C47.6144 58.7181 47.7244 58.7813 48.2746 59.0973C48.3846 59.1605 48.4672 59.2174 48.5222 59.2554H50.1819V58.7181C50.1819 58.3894 50.1819 58.3388 50.1085 58.0101C51.8966 58.1808 52.0525 58.2061 52.0525 58.3641C52.0525 58.4526 51.9424 58.5348 51.6123 58.6675V59.2617H53.0245C53.6388 58.7623 53.8589 58.6549 53.9964 58.6549C54.1707 58.6549 54.3816 58.7623 54.9501 59.072C55.1977 59.2174 55.3535 59.3375 55.3535 59.426C55.3535 59.5145 55.2985 59.5588 55.106 59.5588H51.7132L51.7224 59.5461Z" fill="white"/>
<path d="M67.7119 64.3914C68.5579 65.2067 69.6859 65.8424 71.2104 66.2019C72.4882 66.5101 74.048 66.6834 75.9339 66.7219C76.022 66.7219 76.022 66.8568 75.9339 66.8824C75.2553 67.1072 74.9293 67.441 74.6737 68.1216C74.6385 68.2179 74.5415 68.2692 74.4182 68.2692C74.2155 68.2692 73.907 68.2179 73.5017 68.1344C72.5147 67.9354 71.1047 67.4667 70.3204 67.0943C69.0425 66.478 68.0908 65.6562 67.4299 64.6289C67.0421 65.4315 66.4252 66.112 65.544 66.6449C64.0635 67.563 61.9044 68.1151 59.1021 68.2692C59.0139 68.2692 58.9522 68.0702 59.0492 68.0574C61.2787 67.685 62.9796 67.043 64.1516 66.1634C64.8478 65.6562 65.3413 65.0719 65.6497 64.3914H61.0056C60.5297 64.3914 60.0538 64.417 59.4281 64.4684L59.2254 63.974C59.9216 64.0511 60.4327 64.0832 60.9439 64.0832H65.7555C65.9053 63.6402 65.9934 63.1779 65.9758 62.6836C68.3552 62.9211 68.408 62.9339 68.408 63.1394C68.408 63.2999 68.2054 63.409 67.7471 63.4989C67.7119 63.698 67.6766 63.8842 67.6149 64.0832H72.6116C73.4576 63.3641 73.6779 63.255 73.8013 63.255C73.9687 63.255 74.1714 63.3641 75.0086 63.8392C75.3787 64.0511 75.5197 64.1602 75.5197 64.2501C75.5197 64.34 75.4668 64.3849 75.2818 64.3849H67.703L67.7119 64.3914ZM66.2314 60.43H62.5566C62.1688 60.43 61.7722 60.4557 61.2611 60.5071L61.0584 60.0127C61.6489 60.0897 62.0631 60.1218 62.5037 60.1218H66.2402V58.5617H61.5343C61.1289 58.5617 60.7324 58.5874 60.1772 58.6388L59.9745 58.1444C60.5826 58.2214 61.0144 58.2535 61.4726 58.2535H68.4609C68.8046 57.772 69.0866 57.3354 69.3245 56.9181C69.5272 56.5842 69.677 56.2761 69.7652 56C71.3779 56.4815 71.9419 56.7062 71.9419 56.8796C71.9419 57.0529 71.792 57.0915 71.1223 57.1171C70.5142 57.5473 69.8004 57.971 69.2188 58.2535H72.1269C72.9465 57.5858 73.1668 57.4831 73.299 57.4831C73.4664 57.4831 73.6691 57.5922 74.4358 58.016C74.7795 58.2279 74.9293 58.337 74.9293 58.4269C74.9293 58.5168 74.8764 58.5617 74.6913 58.5617H67.9762V60.1218H70.9813C71.7832 59.4541 72.0035 59.345 72.1357 59.345C72.3032 59.345 72.5058 59.4541 73.2725 59.8907C73.581 60.0769 73.7308 60.1989 73.7308 60.2888C73.7308 60.3787 73.6779 60.4236 73.4928 60.4236H67.985V62.1442H72.6557C73.4752 61.4509 73.6955 61.3417 73.8277 61.3417C73.9952 61.3417 74.1978 61.4509 74.9998 61.9003C75.3435 62.1121 75.4933 62.2213 75.4933 62.3112C75.4933 62.4011 75.4404 62.446 75.2553 62.446H60.891C60.4327 62.446 59.9745 62.4717 59.3753 62.523L59.1726 62.0287C59.8335 62.1057 60.3446 62.1378 60.8381 62.1378H66.2578V60.4172L66.2314 60.43ZM64.839 58.138C64.416 58.138 64.275 58.0288 64.1076 57.6179C63.8872 57.0144 63.5436 56.5778 63.0677 56.2183C63.0148 56.1669 63.0677 56.0835 63.1558 56.0963C64.9536 56.2825 65.8084 56.8282 65.8084 57.4831C65.8084 57.9133 65.5175 58.138 64.839 58.138Z" fill="white"/>
<path d="M80.1539 62.4639C79.5434 62.8475 78.8874 63.1927 78.1675 63.5124C78.0946 63.5508 77.9579 63.4485 78.0126 63.3909C79.2245 62.4319 80.2086 61.3834 80.9103 60.3348C81.2292 59.8553 81.4934 59.3758 81.6848 58.9027C83.5983 59.4717 83.6895 59.5165 83.6895 59.6763C83.6895 59.7978 83.5346 59.8617 83.0425 59.9576C82.5322 60.5586 81.9855 61.1021 81.375 61.588C82.1495 61.6839 82.268 61.7478 82.268 61.8821C82.268 62.0035 82.1586 62.0675 81.7759 62.189V67.7258C81.7759 68.0966 81.457 68.2692 80.81 68.2692C80.4091 68.2692 80.0355 68.1478 80.0355 67.7641C80.0355 67.4189 80.1448 66.3831 80.1448 64.286V62.4703L80.1539 62.4639ZM83.0425 57.0741C81.7577 58.2825 80.1813 59.2224 78.4044 59.8489C78.3315 59.8745 78.1948 59.7594 78.2768 59.7147C79.1698 59.1201 80.0355 58.2697 80.7007 57.4449C81.1198 56.9271 81.4388 56.422 81.6119 56C83.0698 56.3708 83.8626 56.6521 83.8626 56.8376C83.8626 56.9974 83.6166 57.0613 83.0516 57.0741H83.0425ZM85.3023 61.8245C84.7738 63.9088 84.0357 65.277 82.7509 66.4854C82.6962 66.5366 82.5596 66.4726 82.5778 66.4087C83.1792 64.9893 83.7168 62.7836 83.7168 61.5496C83.7168 61.4281 83.6986 61.2427 83.6804 61.0062C85.5119 61.2491 85.8582 61.3386 85.8582 61.5368C85.8582 61.6583 85.8035 61.6839 85.3114 61.8309L85.3023 61.8245ZM87.7991 59.4909C87.7991 64.2285 87.9357 66.7284 87.9357 67.6427C87.9357 68.0391 87.5348 68.2373 86.7967 68.2373C86.2864 68.2373 86.0404 68.0902 86.0404 67.7577C86.0404 67.1312 86.1498 65.2323 86.1498 61.4537V59.4909H84.9196C84.6007 59.4909 84.2726 59.5165 83.8444 59.5676L83.6348 59.0753C84.1269 59.152 84.5096 59.184 84.8832 59.184H86.1498C86.1315 57.1764 86.0951 56.569 85.9766 56.1023C88.3276 56.2493 88.4187 56.2749 88.4187 56.4859C88.4187 56.6074 88.3458 56.6457 87.7899 56.8439V59.184H88.5463C89.1477 58.6661 89.3755 58.5574 89.5121 58.5574C89.6853 58.5574 89.8949 58.6661 90.5145 58.9986C90.7787 59.1584 90.9336 59.2671 90.9336 59.3566C90.9336 59.4461 90.879 59.4909 90.6876 59.4909H87.7899H87.7991ZM89.667 58.4168C89.3299 58.4168 89.2297 58.34 89.0839 57.95C88.929 57.5792 88.61 57.1764 88.2364 56.8631C88.1818 56.812 88.2729 56.7289 88.3731 56.7417C89.9222 57.0358 90.4507 57.3107 90.4507 57.7902C90.4507 58.1227 90.0953 58.4168 89.6762 58.4168H89.667ZM89.9678 65.7182C89.421 65.7182 89.2661 65.4944 89.2661 64.2733C89.2661 63.2247 88.9836 62.2529 88.3913 61.0062C88.3549 60.9422 88.4825 60.9166 88.5463 60.9678C90.1135 62.336 90.9701 63.6787 90.9701 64.8039C90.9701 65.3602 90.5692 65.7182 89.9678 65.7182ZM93.9042 64.8934C93.9042 65.7694 93.9224 66.4982 93.9224 66.7795C93.9224 67.2463 93.9042 67.3933 93.7675 67.5659C93.5215 67.8984 92.7652 68.1478 91.9724 68.1478C91.6899 68.1478 91.6353 68.0966 91.5715 67.8281C91.4621 67.3358 91.1888 67.2015 89.8493 66.9522C89.7582 66.9394 89.7764 66.7923 89.8675 66.7923C90.6421 66.8307 91.3437 66.8563 91.9269 66.8563C92.1729 66.8563 92.2276 66.8307 92.2276 66.6708V60.5266H91.3801C91.0612 60.5266 90.7332 60.5522 90.3049 60.6034L90.0953 60.1111C90.5874 60.1878 90.9701 60.2197 91.3437 60.2197H93.5033C94.1685 59.6251 94.3963 59.5165 94.5238 59.5165C94.697 59.5165 94.9065 59.6251 95.5626 60.0215C95.8451 60.1942 96 60.3029 96 60.3924C96 60.4819 95.9453 60.5266 95.754 60.5266H93.8951V64.8934H93.9042ZM93.1114 57.2595C93.7949 56.6585 94.0227 56.5562 94.1502 56.5562C94.3234 56.5562 94.5329 56.6649 95.189 57.0613C95.4715 57.234 95.6264 57.3426 95.6264 57.4322C95.6264 57.5217 95.5717 57.5664 95.3804 57.5664H92.0909C91.772 57.5664 91.4439 57.592 91.0157 57.6431L90.8061 57.1508C91.2981 57.2276 91.6808 57.2595 92.0544 57.2595H93.1114Z" fill="white"/>
<path d="M107.515 60.1447C108.128 62.0016 109.27 63.4937 111.1 64.6874C112.391 65.5428 114.072 66.1994 115.939 66.6304C116.032 66.6569 116.013 66.7829 115.92 66.8095C115.187 67.0283 114.797 67.3201 114.574 67.9103C114.499 68.1026 114.416 68.1888 114.286 68.1888C114.035 68.1888 113.608 68.0363 113.088 67.7777C112.066 67.267 110.738 66.3983 109.967 65.6688C108.518 64.2895 107.617 62.5454 107.227 60.5028C106.865 62.6117 106.085 64.0308 104.506 65.4036C102.964 66.7432 100.921 67.6782 98.1624 68.2684C98.0695 68.2817 97.9488 68.1292 98.0231 68.1026C100.995 66.962 103.038 65.4168 104.237 63.4207C104.757 62.552 105.128 61.4777 105.314 60.1447H100.187C99.667 60.1447 99.1283 60.1713 98.4318 60.2243L98.2181 59.7137C99.0262 59.7933 99.6299 59.8264 100.224 59.8264H105.351C105.444 59.0572 105.509 58.2149 105.509 57.2799C105.509 56.7958 105.49 56.5637 105.435 56C107.747 56.2188 108.174 56.3051 108.174 56.5637C108.174 56.7162 108.035 56.7958 107.496 56.9616C107.496 58.0226 107.441 59.0704 107.32 59.8264H112.242C113.264 58.8781 113.496 58.7654 113.636 58.7654C113.812 58.7654 113.998 58.8781 115.029 59.5081C115.475 59.7866 115.623 59.906 115.623 60.0055C115.623 60.1049 115.567 60.1447 115.372 60.1447H107.524H107.515Z" fill="white"/>
<path d="M128.691 58.861C129.089 58.416 129.514 57.855 129.895 57.3069C130.175 56.8619 130.42 56.4363 130.573 56.0881C132.266 56.6362 132.809 56.8619 132.809 57.036C132.809 57.1973 132.583 57.2875 131.94 57.2875C131.243 57.8099 130.175 58.4547 129.342 58.8545H132.257C133.027 58.2677 133.181 58.1839 133.325 58.1839C133.515 58.1839 133.642 58.2612 134.511 58.8803C134.891 59.164 135 59.2672 135 59.3768C135 59.5896 134.909 59.6283 134.194 59.6735C133.896 59.6864 133.878 59.6864 133.742 59.7831C133.325 60.0539 132.574 60.3892 131.977 60.6149C131.904 60.6407 131.768 60.5762 131.805 60.5053C132.013 60.1571 132.221 59.7573 132.402 59.164H120.444C120.58 60.3054 119.991 61.0147 118.978 61.0147C118.398 61.0147 118 60.7181 118 60.3054C118 60.0088 118.154 59.8218 118.579 59.6606C119.575 59.3123 119.819 59.0415 119.991 58.2032C120.01 58.1387 120.163 58.1258 120.182 58.1903C120.272 58.4289 120.354 58.6482 120.39 58.861H128.682H128.691ZM125.341 63.2975C125.341 62.8525 125.341 62.7236 125.287 62.2915C125.948 62.3689 126.437 62.4269 126.79 62.4656C127.713 61.8659 128.166 61.4726 128.709 60.9245H122.562C122.245 60.9245 121.92 60.9502 121.494 61.0341L121.286 60.5118C121.775 60.5891 122.128 60.6214 122.508 60.6214H128.745C129.514 60.1248 129.668 60.0475 129.813 60.0475C130.003 60.0475 130.148 60.1248 130.881 60.5956C131.198 60.7955 131.316 60.8922 131.316 60.9954C131.316 61.1824 131.108 61.2469 130.392 61.2662C129.134 61.9111 128.383 62.2335 127.405 62.5624C127.758 62.6268 127.758 62.6849 127.758 62.7752C127.758 62.9106 127.586 63.0009 127.097 63.1621V63.5748H131.687C132.646 62.73 132.873 62.6268 132.999 62.6268C133.171 62.6268 133.38 62.7365 134.375 63.2846C134.828 63.5554 134.982 63.6586 134.982 63.7553C134.982 63.852 134.928 63.8907 134.737 63.8907H127.106V65.3094C127.125 66.0445 127.161 66.3927 127.161 66.9022C127.161 67.2633 127.052 67.5599 126.826 67.7727C126.491 68.108 125.866 68.2692 124.925 68.2692C124.572 68.2692 124.527 68.2176 124.454 67.921C124.364 67.4374 123.811 67.2117 122.309 66.9409C122.218 66.928 122.236 66.7538 122.327 66.7538C123.359 66.8054 124.337 66.8506 125.015 66.8506C125.242 66.8506 125.332 66.799 125.332 66.6507V63.8907H119.394C119.041 63.8907 118.679 63.9165 118.208 63.9681L118 63.4716C118.525 63.549 118.923 63.5812 119.313 63.5812H125.332V63.2975H125.341ZM122.635 58.6997C122.128 58.6997 121.938 58.5256 121.729 57.855C121.539 57.3069 121.204 56.8103 120.716 56.4492C120.661 56.3976 120.734 56.3009 120.824 56.3138C122.816 56.7136 123.64 57.2102 123.64 57.9195C123.64 58.3644 123.205 58.6997 122.626 58.6997H122.635ZM126.581 58.474C126.038 58.474 125.903 58.3386 125.712 57.6164C125.54 57.0296 125.224 56.5589 124.699 56.1268C124.644 56.0752 124.699 55.9785 124.789 56.0043C126.763 56.475 127.632 56.9974 127.632 57.7325C127.632 58.1774 127.179 58.4676 126.581 58.4676V58.474Z" fill="white"/>
<path d="M7.68648 84.5754H11.7811C12.7541 83.4999 12.9568 83.3867 13.0784 83.3867C13.2324 83.3867 13.4189 83.507 14.4081 84.2075C14.8622 84.5329 15 84.6603 15 84.7664C15 84.8726 14.9513 84.915 14.7811 84.915H1.8C1.31351 84.915 0.754051 84.9292 0.186483 84.9999L0 84.4551C0.705405 84.54 1.24865 84.5754 1.78378 84.5754H5.95945V74.8039C5.95945 73.9194 5.92702 73.2189 5.86216 72.7307C8.08378 72.8935 8.28649 73.0562 8.28649 73.2189C8.28649 73.3817 8.08379 73.5161 7.6946 73.6293V78.0516H10.4432C11.3514 77.0115 11.554 76.8912 11.6757 76.8912C11.8297 76.8912 12.0162 77.0115 12.9568 77.6978C13.3784 78.0092 13.5162 78.1365 13.5162 78.2427C13.5162 78.3488 13.4676 78.3913 13.2973 78.3913H7.71081V84.5754H7.68648Z" fill="white"/>
<path d="M22.5402 80.3891H23.3891C23.9879 79.7888 24.1774 79.6767 24.2835 79.6767C24.4275 79.6767 24.6018 79.7888 25.1779 80.1846C25.428 80.3627 25.5568 80.4748 25.5568 80.5672C25.5568 80.6595 25.5114 80.7057 25.3522 80.7057H22.5326V82.4735C23.6165 82.3086 24.6549 82.1437 25.337 81.992C25.4128 81.9788 25.4659 82.1305 25.3977 82.1569C23.8363 82.8693 21.8125 83.5092 19.1673 84.0896C19.0915 84.4063 18.9929 84.5448 18.7883 84.5448C18.523 84.5448 18.523 84.5184 18 82.9287C18.4548 82.9287 19.2885 82.8759 20.2511 82.7638C20.5467 82.7374 20.8651 82.6978 21.1834 82.6516V80.7057H19.2658C18.9853 80.7057 18.7125 80.7321 18.3335 80.7849L18.1592 80.277C18.5685 80.3561 18.8868 80.3891 19.1976 80.3891H21.1834V78.4827H19.9101V78.8126C19.9101 79.182 19.6448 79.3205 19.1218 79.3205C18.7125 79.3205 18.5533 79.1951 18.5533 78.9247C18.5533 78.2387 18.6291 77.4339 18.6291 74.6371C18.6291 74.0038 18.614 73.3772 18.5154 72.7307C19.2885 72.988 19.3492 73.0341 20.0616 73.4035H23.5862C24.1546 72.8429 24.2759 72.7571 24.4048 72.7571C24.5639 72.7571 24.67 72.8363 25.2385 73.265C25.4735 73.4563 25.572 73.5685 25.572 73.674C25.572 73.8125 25.4962 73.8917 25.1172 74.083V74.8086C25.1172 76.7545 25.193 78.1265 25.193 78.5619C25.193 78.9181 24.9277 79.0698 24.4199 79.0698C23.9803 79.0698 23.8211 78.9577 23.8211 78.6608V78.4827H22.5326V80.3891H22.5402ZM21.1834 75.7189V73.7202H19.9101V75.7189H21.1834ZM21.1834 78.1727V76.0355H19.9101V78.1727H21.1834ZM23.8287 75.7189V73.7202H22.5402V75.7189H23.8287ZM23.8287 78.1727V76.0355H22.5402V78.1727H23.8287ZM26.6635 77.5988C26.383 77.5988 26.1102 77.6252 25.7388 77.711L25.5644 77.1767C25.9889 77.2558 26.3072 77.2888 26.618 77.2888H30.8853C31.4538 76.7281 31.575 76.6424 31.7039 76.6424C31.8631 76.6424 31.9692 76.7215 32.621 77.2558C32.9015 77.4999 33 77.612 33 77.7242C33 77.9023 32.909 77.955 32.4997 78.0276C32.2648 78.0672 32.2345 78.0804 31.9919 78.3706C31.5675 78.8126 30.855 79.426 30.385 79.7822C30.3244 79.8218 30.1804 79.7426 30.2107 79.6701C30.5745 78.9973 30.8853 78.1793 31.0293 77.5988H29.4224V81.2004C29.4224 82.3218 29.4679 83.1068 29.4679 83.6675C29.4679 84.2282 29.3239 84.4459 28.9298 84.6833C28.5963 84.8746 28.1415 84.9999 27.7019 84.9999C27.4669 84.9999 27.4517 84.9472 27.3684 84.5646C27.2774 84.0699 26.8681 83.8786 25.5568 83.5487C25.481 83.5356 25.481 83.3575 25.5568 83.3575C26.3754 83.4234 27.1031 83.4828 27.7322 83.4828C27.9217 83.4828 27.9823 83.4432 27.9823 83.2915V77.6054H26.6559L26.6635 77.5988ZM30.3926 73.4035C31.0217 72.8824 31.1506 72.8165 31.2719 72.8165C31.4613 72.8165 31.6205 72.8824 32.2345 73.4035C32.4543 73.5948 32.5831 73.7729 32.5831 73.8719C32.5831 74.05 32.5073 74.1028 32.045 74.1885C31.8555 74.2149 31.7645 74.2545 31.5599 74.4062C30.5973 75.145 30.1273 75.4616 29.5589 75.7914C29.7787 75.9827 29.9075 76.2136 29.9075 76.4511C29.9075 76.8468 29.574 77.1767 29.1192 77.1767C28.7554 77.1767 28.6342 77.0645 28.3916 76.5764C28.0733 75.8904 27.664 75.3693 27.1486 74.9999C27.0879 74.9603 27.1486 74.8877 27.2244 74.9009C28.0733 75.0526 28.7327 75.2571 29.195 75.5342C29.7029 74.9339 30.0743 74.3138 30.3775 73.7268H26.8226C26.5573 73.7268 26.383 73.74 26.0495 73.8059L25.8752 73.3112C26.1253 73.364 26.4285 73.3903 26.7696 73.4035H30.3926Z" fill="white"/>
<path d="M42.1425 80.3735L46.7699 79.9332C47.5918 78.8818 47.7233 78.8029 47.863 78.8029C48.0356 78.8029 48.2082 78.8818 49.1945 79.4141C49.6712 79.6704 49.7781 79.7558 49.7781 79.8675C49.7781 79.9332 49.6959 79.9792 49.5397 79.9924L42.1507 80.689V82.897C42.1507 83.7053 42.4055 83.7973 44.7151 83.7973C47.0247 83.7973 47.8219 83.7185 48.1425 83.4425C48.3808 83.2387 48.5205 82.9627 49.0794 81.5301C49.0959 81.4644 49.2849 81.4907 49.2849 81.5564C49.252 82.0493 49.2356 82.5422 49.2356 82.9365C49.2356 83.1862 49.3342 83.2913 49.5233 83.3899C49.9014 83.5805 50 83.7185 50 83.9222C50 84.2771 49.7288 84.5334 49.0794 84.7108C48.3151 84.9145 47 84.9999 45.0192 84.9999C41.1973 84.9999 40.5151 84.7108 40.5151 83.0876C40.5151 82.7064 40.5479 82.3384 40.5479 80.8335L36.7096 81.1884C36.0767 81.2541 35.6822 81.3133 35.2219 81.4053L35 80.9124C35.8877 80.9387 36.1753 80.9255 36.6192 80.8861L40.5479 80.5181V78.0603L37.2849 78.3626C36.6521 78.4152 36.2575 78.4875 35.7973 78.5795L35.5589 78.0866C36.4466 78.0997 36.8247 78.0866 37.1781 78.0472L40.5397 77.7317V75.5237C39.126 75.7011 37.6384 75.8128 36.1178 75.8522C36.0356 75.8522 35.9781 75.6748 36.0685 75.6617C39.0932 75.2082 41.7562 74.5839 43.737 73.861C44.7233 73.5062 45.5452 73.125 46.1452 72.7307C47.3945 73.4142 47.9041 73.769 47.9041 73.9728C47.9041 74.0976 47.8055 74.1765 47.526 74.1765C47.3863 74.1765 47.1808 74.1502 46.926 74.0976C45.4794 74.6036 43.8685 75.0111 42.1507 75.3002V77.5937L45.7507 77.2651C46.5397 76.2991 46.6712 76.2137 46.811 76.2137C46.9836 76.2137 47.1562 76.2925 48.0767 76.7723C48.5206 77.022 48.6274 77.1008 48.6274 77.2126C48.6274 77.2783 48.5288 77.3243 48.389 77.3374L42.1589 77.9223V80.3801L42.1425 80.3735Z" fill="white"/>
<path d="M63.0312 78.4031C63.2427 78.3671 63.4372 78.3131 63.5725 78.229C63.7333 78.139 63.9616 78.0909 64.4353 78.1029C64.8243 78.1149 65.2049 78.139 65.4756 78.229C65.8308 78.3311 66 78.4812 66 78.6913C66 78.9255 65.7209 79.0756 65.2472 79.0756C65.1627 79.0756 64.9174 79.0756 64.6298 79.0876C63.7163 79.1116 62.8198 79.2016 60.5361 79.5379C60.8321 80.7867 61.1028 81.8553 61.3988 82.852C61.5003 83.1642 61.5426 83.3143 61.5426 83.4103C61.5426 83.7225 61.1028 83.8847 60.663 83.8847C60.2739 83.8847 60.0455 83.7586 59.961 83.3383C59.7326 82.2036 59.4873 81.0568 59.1913 79.772C57.9226 79.9821 56.9584 80.1442 56.3071 80.3304C55.8842 80.4564 55.5882 80.5405 55.4444 80.6426C55.2837 80.7566 55.0891 80.8047 54.8608 80.8047C54.404 80.8047 53.7697 80.4925 53.1945 80.0542C53.0677 79.9641 53 79.802 53 79.6519C53 79.5619 53.0169 79.5018 53.1015 79.5018C53.1692 79.5018 53.2622 79.5258 53.3975 79.6039C53.5921 79.688 53.9642 79.79 54.2433 79.79C54.5986 79.79 55.0891 79.742 55.7742 79.6279C56.6708 79.4778 57.7957 79.2797 59.0052 79.0816C58.8614 78.4572 58.743 77.8868 58.5823 77.2744C57.3897 77.4725 56.8399 77.5866 56.4255 77.6887C56.1464 77.7487 55.9688 77.7907 55.8081 77.8508C55.6135 77.9348 55.4782 77.9768 55.2837 77.9768C55.0891 77.9768 54.7762 77.8748 54.3364 77.5626C53.8966 77.2504 53.7358 77.0523 53.7358 76.8781C53.7358 76.7521 53.7866 76.644 53.8627 76.644C53.9388 76.644 53.9896 76.668 54.0911 76.7341C54.4632 76.9322 54.7254 77.0583 55.2667 77.0583C55.4444 77.0583 55.7066 77.0342 56.324 76.9442C57.026 76.8421 57.728 76.7341 58.3793 76.62C58.0664 75.4132 57.9902 75.071 57.8549 74.7648C57.8042 74.6507 57.7534 74.5366 57.6435 74.5006C57.3643 74.3985 57.0429 74.3865 56.73 74.3505C56.6031 74.3385 56.5355 74.3025 56.5355 74.2364C56.5355 74.1644 56.7638 74.0023 56.8907 73.9483C57.0683 73.8762 57.3136 73.8462 57.5927 73.8462C57.8887 73.8462 58.4047 73.8702 59.0644 74.0083C59.4704 74.0923 59.7833 74.2845 59.7833 74.5066C59.7833 74.6447 59.7326 74.7168 59.6565 74.7948C59.5888 74.8668 59.4789 74.9809 59.5127 75.179C59.5634 75.5633 59.5973 75.8155 59.7241 76.3738C60.2655 76.2718 60.9336 76.1517 61.5172 76.0256C61.661 76.0016 61.7964 75.9535 61.974 75.8515C62.1685 75.7374 62.4476 75.6113 62.7267 75.6113C63.2934 75.6113 63.6571 75.6594 63.9193 75.7374C64.1646 75.7974 64.3084 75.9836 64.3084 76.1096C64.3084 76.2237 64.3084 76.2958 64.0969 76.3858C63.9532 76.4339 63.8009 76.4579 63.4795 76.5119C62.2869 76.674 61.1113 76.8721 59.9102 77.0463C60.0371 77.6046 60.1724 78.217 60.3331 78.8414C61.475 78.6793 62.3377 78.5292 63.0228 78.3911L63.0312 78.4031Z" fill="white"/>
<path d="M80.5684 77.7132C80.8271 77.6505 80.9084 77.6067 81.0414 77.4814C81.1523 77.3936 81.2705 77.3247 81.4553 77.3247C81.6696 77.3247 81.98 77.4312 82.527 77.7696C82.867 77.9763 83 78.1455 83 78.3272C83 78.4964 82.9113 78.6154 82.5565 78.6655C82.4457 78.6781 82.3422 78.6906 82.2018 78.7971C81.4331 79.4111 80.7457 79.8873 79.881 80.3822C79.6814 80.5013 79.5262 80.5765 79.4228 80.5765C79.3636 80.5765 79.3119 80.5514 79.3119 80.5013C79.3119 80.4512 79.3562 80.3697 79.5115 80.2256C80.1101 79.5865 80.5979 78.9475 81.0636 78.2771C81.0931 78.2269 81.0783 78.2019 81.0044 78.2144C80.0806 78.4337 78.9793 78.7344 78.0702 78.9663C78.1811 79.3672 78.2698 79.787 78.425 80.282C78.6689 81.0652 78.9202 81.8546 79.1789 82.6754C79.2676 82.9511 79.3784 83.3395 79.3784 83.4836C79.3784 83.728 79.0532 83.8846 78.7502 83.8846C78.4767 83.8846 78.255 83.8219 78.1959 83.5839C77.9224 82.5062 77.6415 81.4098 77.3681 80.3321C77.2794 79.9813 77.1685 79.5928 77.0577 79.1981C75.8899 79.5239 75.4021 79.693 75.0177 79.8497C74.8477 79.9249 74.7443 79.9687 74.6778 80.0314C74.5669 80.1254 74.4634 80.1755 74.3082 80.188C74.0791 80.2005 73.813 80.0815 73.4952 79.7996C73.0665 79.4362 73 79.2795 73 79.0164C73 78.8723 73.0887 78.772 73.1552 78.772C73.1996 78.772 73.2661 78.8222 73.3548 78.8911C73.5839 79.0728 73.8647 79.1918 74.1086 79.1918C74.2786 79.1918 74.4782 79.1793 74.6778 79.1417C75.3503 78.9976 76.1338 78.8159 76.8877 78.6342C76.7029 78.0077 76.5994 77.6568 76.4738 77.2558C76.4294 77.0992 76.3851 77.0115 76.3186 76.8799C76.2594 76.7483 76.1486 76.6857 76.0451 76.6606C75.9047 76.623 75.7199 76.6105 75.5351 76.6105C75.4464 76.6105 75.3799 76.5979 75.3799 76.5353C75.3799 76.4601 75.4686 76.3411 75.609 76.2471C75.779 76.128 75.9934 76.0779 76.1338 76.0779C76.4885 76.0654 76.8729 76.1719 77.2055 76.2721C77.6637 76.4162 77.8041 76.5603 77.8041 76.7045C77.8041 76.8235 77.7746 76.8987 77.7302 76.9801C77.6859 77.0553 77.6711 77.1117 77.6563 77.1744C77.6415 77.2245 77.6415 77.2809 77.6711 77.4187C77.7154 77.6568 77.7598 77.8761 77.8854 78.4337C79.068 78.158 79.9549 77.8886 80.5536 77.732L80.5684 77.7132Z" fill="white"/>
<path d="M90.0078 75.0832C90.0078 75.0116 90.07 74.9615 90.171 74.9615C90.2332 74.9615 90.3187 74.9615 90.4742 74.9759C91.1039 75.0474 91.8113 75.212 92.5265 75.5698C93.2728 75.9419 93.6382 76.5215 93.6382 77.0581C93.6382 77.5662 93.2495 77.8882 92.7675 77.8882C92.4643 77.8882 92.1534 77.7379 91.9746 77.3372C91.8424 77.0581 91.6481 76.7147 91.2982 76.2639C90.894 75.7701 90.5053 75.4338 90.1166 75.2263C90.0389 75.1834 90 75.1404 90 75.076L90.0078 75.0832ZM92.3633 81.8238C93.8481 81.0224 95.4339 80.0277 96.8332 78.9115C98.318 77.695 99.5308 76.5215 100.627 75.2836C100.705 75.1977 100.79 75.1476 100.837 75.1476C100.953 75.1476 101 75.2048 101 75.2836C101 75.3623 100.969 75.4338 100.907 75.534C99.9739 77.051 99.0021 78.3104 97.5484 79.6914C96.1569 81.0009 94.8043 82.0814 93.2417 83.1691C93.0629 83.2907 92.8997 83.4338 92.8219 83.5268C92.6742 83.7057 92.4643 83.8846 92.1767 83.8846C91.8346 83.8846 91.6247 83.7487 91.1894 83.3193C90.4975 82.6324 90.2876 82.246 90.2876 81.9383C90.2876 81.6306 90.4042 81.373 90.5442 81.373C90.6219 81.373 90.6763 81.4302 90.8007 81.5662C91.1583 81.9097 91.3837 82.1172 91.547 82.1172C91.7413 82.1172 92.029 81.9955 92.371 81.8166L92.3633 81.8238Z" fill="white"/>
<path d="M110.647 77.4241C111.275 77.8569 111.474 78.1887 111.474 78.5061C111.474 78.7441 111.319 78.9245 111.12 79.0327C110.921 79.1409 110.765 79.2274 110.396 79.5881C109.872 80.1003 109.26 80.6052 108.588 81.0885C107.761 81.6728 106.823 82.1994 105.797 82.6034C105.487 82.726 105.273 82.7693 105.199 82.7693C105.059 82.7693 105 82.726 105 82.6322C105 82.524 105.089 82.4952 105.34 82.3292C106.262 81.7161 107.037 81.0885 107.731 80.4249C108.285 79.8983 108.772 79.3284 109.215 78.7297C109.503 78.3258 109.614 78.131 109.614 77.9218C109.614 77.7703 109.429 77.5467 109.045 77.2942C108.92 77.2221 108.89 77.1716 108.89 77.1283C108.89 77.0562 109.245 76.9047 109.459 76.9047C109.798 76.9047 110.101 77.0562 110.64 77.4313L110.647 77.4241ZM113.962 76.8109C114.899 77.1428 115.815 77.5756 116.664 78.3402C117.535 79.1337 118 79.8694 118 80.4105C118 80.8865 117.771 81.3987 117.203 81.3987C116.605 81.3987 116.465 80.9515 116.25 80.497C115.896 79.7324 115.497 79.076 115.04 78.5061C114.597 77.9507 114.117 77.489 113.585 77.0995C113.401 76.9624 113.312 76.9047 113.312 76.8181C113.312 76.7316 113.371 76.6955 113.467 76.6955C113.593 76.6955 113.777 76.7388 113.977 76.8181L113.962 76.8109ZM117.513 75.0869C117.513 75.7794 116.944 76.3276 116.243 76.3276C115.542 76.3276 114.973 75.7722 114.973 75.0869C114.973 74.4016 115.542 73.8462 116.243 73.8462C116.944 73.8462 117.513 74.3872 117.513 75.0869ZM115.401 75.0869C115.401 75.5197 115.785 75.8948 116.243 75.8948C116.701 75.8948 117.07 75.5197 117.07 75.0869C117.07 74.6541 116.686 74.2646 116.243 74.2646C115.8 74.2646 115.401 74.6397 115.401 75.0869Z" fill="white"/>
<path d="M132.979 80.314C133.619 80.6041 134.137 80.8872 134.591 81.1911C135.603 81.8541 136 82.4067 136 82.8279C136 83.27 135.644 83.6015 135.222 83.6015C134.801 83.6015 134.485 83.4979 134.178 83.1111C133.586 82.3652 133.003 81.5917 132.226 80.977C131.569 80.459 131.116 80.1759 130.541 79.872C129.277 81.0185 127.868 81.937 126.418 82.6829C125.308 83.2423 124.231 83.6291 123.543 83.8156C123.405 83.857 123.292 83.8846 123.17 83.8846C123.089 83.8846 123 83.857 123 83.7534C123 83.6982 123.049 83.6222 123.121 83.5946C125.106 82.676 126.523 81.7436 128.386 80.1206C129.715 78.9604 130.573 77.952 131.804 76.3221C131.869 76.2392 131.902 76.1771 131.902 76.1494C131.902 76.108 131.853 76.0942 131.683 76.108C130.508 76.2254 128.994 76.4395 127.665 76.6812C127.228 76.7641 127.026 76.8401 126.888 76.9092C126.734 76.9782 126.604 77.068 126.297 77.068C125.981 77.068 125.641 76.8953 125.171 76.3912C124.855 76.0459 124.814 75.8318 124.814 75.4726C124.814 75.2033 124.936 75.0997 125.033 75.0997C125.082 75.0997 125.155 75.1549 125.268 75.2723C125.738 75.7143 125.924 75.8179 126.426 75.8179C126.629 75.8179 127.05 75.7903 127.706 75.7351C129.083 75.6038 130.209 75.4795 131.407 75.3345C131.723 75.2931 131.926 75.2378 132.08 75.1204C132.234 75.003 132.347 74.9615 132.566 74.9615C132.882 74.9615 133.108 75.0928 133.457 75.3483C133.959 75.7213 134.161 75.9492 134.161 76.1494C134.161 76.2945 134.113 76.4395 133.611 76.5776C133.457 76.6191 133.359 76.7365 133.206 76.923C132.485 77.8277 131.861 78.6012 130.921 79.506C131.715 79.7753 132.388 80.0516 132.955 80.3071L132.979 80.314Z" fill="white"/>
<g clip-path="url(#clip0_132_127)">
<path d="M26.2128 33.4545C26.2128 40.3751 21.3901 45.9999 13.1348 45.9999C4.87943 45.9999 0 40.434 0 33.9551C0 28.8309 3.5461 25.5031 9.13475 22.7054C3.29078 19.7016 1.19149 16.256 1.19149 10.8373C1.19149 5.41863 6.1844 0.294434 13.1915 0.294434C20.1986 0.294434 24.9645 4.5646 24.9645 10.0716C24.9645 14.7247 22.4965 17.169 17.2482 19.79C23.8582 23.1472 26.2128 27.0051 26.2128 33.425V33.4545ZM6.24113 34.014C6.24113 40.1395 9.02128 44.1152 13.2482 44.1152C17.4752 44.1152 20.4255 40.2573 20.4255 34.338C20.4255 29.9206 18.0142 27.2996 10.8369 23.7067C6.95035 26.0921 6.24113 29.5672 6.24113 34.0435V34.014ZM19.2057 10.16C19.2057 5.33029 16.6241 2.20865 13.1915 2.20865C9.3617 2.20865 6.83688 5.27139 6.83688 9.8655C6.83688 13.2227 8.19858 15.3725 15.5461 18.8476C18.3262 17.0806 19.2057 14.0768 19.2057 10.16Z" fill="white"/>
<path d="M42 41.7883C42 44.148 40.1714 46 38.0286 46C35.8857 46 34 44.148 34 41.7883C34 39.4286 35.8286 37.6364 38.0286 37.6364C40.2286 37.6364 42 39.4883 42 41.7883Z" fill="white"/>
<path d="M51.312 7.27401C50.7163 7.45071 50.4893 7.39181 50.3191 6.59667C50.1489 5.91933 50.1489 5.74264 50.8581 5.50704C54.2908 4.21127 59.4539 1.97311 63.3971 0C63.8227 0 64.3333 0.294494 64.3333 0.736236C64.2766 5.62484 64.1064 9.30602 64.1064 14.2535V33.3957C64.1064 39.4622 64.1631 40.2574 64.7588 41.5237C65.3546 42.8195 67.2837 42.8784 69.7517 43.114C70.1773 43.1729 70.2908 43.3496 70.2908 44.0269C70.2908 44.7631 70.1773 44.8809 69.7517 44.8809C67.0283 44.7631 63.7943 44.7042 61.0425 44.7042C57.9787 44.7042 54.8581 44.7631 52.078 44.8809C51.5957 44.8809 51.4822 44.7631 51.4822 44.0269C51.4822 43.3496 51.6525 43.1729 52.078 43.114C54.5461 42.9373 56.5035 42.8784 57.0709 41.5237C57.7234 40.1101 57.6666 37.4891 57.6666 33.3957V11.4853C57.6666 9.21767 57.5532 7.4507 57.0709 6.77337C56.6454 6.09603 55.4255 6.03713 53.6099 6.59667L51.312 7.27401Z" fill="white"/>
<path d="M105 27.1819H77V25.0909H105V27.1819Z" fill="white"/>
<path d="M124.163 21.3509C131.113 22.8234 135 26.7401 135 32.7184C135 40.8464 129.752 46.0001 121.496 46.0001C117.128 46.0001 114.887 44.8515 112.844 43.6147C110.943 42.3778 109.014 40.4341 109.014 38.4905C109.014 37.018 110.546 35.8695 113.269 35.8695C115.567 35.8695 116.333 38.8144 117.043 40.5225C117.695 42.2894 118.745 44.1447 121.525 44.1447C125.638 44.1447 127.936 39.6684 127.936 32.5711C127.936 28.1832 126.121 22.1755 120.22 22.6172C119.454 22.6761 118.149 22.7939 117.582 22.7939C117.043 22.7939 116.759 22.6761 116.986 21.557C117.156 20.4085 117.468 20.1435 118.092 20.1435C118.631 20.1435 119.624 20.3202 120.333 20.3202C123.567 20.3202 126.858 17.6403 126.858 10.7786C126.858 6.12554 125.156 2.20877 121.922 2.20877C119.851 2.20877 118.376 3.1217 117.496 4.94756C117.071 5.97829 117.014 6.97958 117.014 8.01031C117.014 10.0423 115.113 11.1908 112.589 11.1908C110.773 11.1908 109.865 10.5724 109.865 9.21773C109.865 5.7427 114.461 0.294556 121.894 0.294556C128.617 0.294556 133.553 4.15243 133.553 10.808C133.553 17.4636 129.128 19.7901 124.135 21.027V21.3214L124.163 21.3509Z" fill="white"/>
</g>
<defs>
<clipPath id="clip0_132_127">
<rect width="136" height="46" fill="white"/>
</clipPath>
</defs>
</svg>
