<svg width="233" height="72" viewBox="0 0 233 72" fill="none" xmlns="http://www.w3.org/2000/svg">
<path d="M50.1984 12.538H42.3365V13.2509C42.3365 13.7003 41.9557 13.8708 41.1943 13.8708C40.6042 13.8708 40.3757 13.7313 40.3757 13.3594C40.3757 12.0885 40.4899 10.8022 40.4899 5.68771C40.4899 4.01389 40.4709 2.34008 40.3948 0.66626C41.4418 1.00722 41.5941 1.06922 42.603 1.54966H49.97C50.7695 0.85224 50.9218 0.759249 51.0741 0.759249C51.2645 0.759249 51.4168 0.85224 52.1972 1.37918C52.5399 1.62715 52.6541 1.73564 52.6541 1.85963C52.6541 2.01461 52.5209 2.1231 52.083 2.35558V4.12238C52.083 8.80287 52.1972 12.0265 52.1972 13.0959C52.1972 13.5454 51.7784 13.7313 51.017 13.7313C50.4078 13.7313 50.1984 13.5764 50.1984 13.2199V12.538ZM50.1984 12.1815V7.08256H42.3365V12.1815H50.1984ZM50.1984 6.7261V1.90612H42.3365V6.7261H50.1984Z" fill="#E72410"/>
<path d="M26.2699 6.49358H29.1063C29.2966 6.10612 29.468 5.74966 29.5822 5.4397C29.7535 5.02124 29.8677 4.66478 29.9439 4.30832C31.7904 4.85076 31.9617 4.92825 31.9617 5.09873C31.9617 5.28471 31.7904 5.3622 31.3145 5.3777C30.4198 6.07513 30.1913 6.24561 29.7725 6.49358H32.8183C33.4656 5.73416 33.694 5.61018 33.8273 5.61018C33.9986 5.61018 34.208 5.73416 34.9314 6.23011C35.255 6.44709 35.4073 6.58657 35.4073 6.69506C35.4073 6.80355 35.3502 6.85004 35.1598 6.85004H30.6101V8.61685H32.3044C32.9135 7.88843 33.142 7.76444 33.2752 7.76444C33.4465 7.76444 33.6369 7.88843 34.3412 8.36888C34.6268 8.57035 34.7791 8.70984 34.7791 8.81833C34.7791 8.92682 34.722 8.97331 34.5316 8.97331H30.6101V10.7401H32.3424C32.9516 10.0117 33.18 9.88771 33.3133 9.88771C33.4846 9.88771 33.675 10.0117 34.3793 10.4921C34.6649 10.6936 34.8171 10.8331 34.8171 10.9416C34.8171 11.0501 34.76 11.0966 34.5697 11.0966H30.6101V13.0649H32.8945C33.6369 12.197 33.8653 12.073 33.9986 12.073C34.1699 12.073 34.3793 12.197 35.2169 12.7704C35.5786 13.0184 35.7309 13.1579 35.7309 13.2663C35.7309 13.3748 35.6738 13.4213 35.4834 13.4213H26.1176V13.7313C26.1176 14.1188 25.813 14.2737 25.2038 14.2737C24.6518 14.2737 24.4233 14.1497 24.4233 13.7778C24.4233 13.4213 24.4995 12.3209 24.4995 10.1047V8.08991C23.9094 8.50836 23.2812 8.89582 22.5578 9.26778C22.4817 9.31427 22.3484 9.19029 22.4055 9.12829C23.3954 8.24489 24.2711 7.2065 24.9373 6.13712C25.3371 5.50169 25.6417 4.86626 25.8701 4.26182C27.4311 4.69578 27.8879 4.85076 27.8879 5.00574C27.8879 5.17622 27.6595 5.26921 27.2026 5.31571C26.8981 5.73416 26.5935 6.13712 26.2699 6.49358ZM26.1176 8.61685H28.954V6.85004H26.1176V8.61685ZM26.1176 8.97331V10.7401H28.954V8.97331H26.1176ZM26.1176 11.0966V13.0649H28.954V11.0966H26.1176ZM33.2562 3.85887H25.7559V3.90536C25.7559 4.26182 25.4894 4.41681 24.8421 4.41681C24.3282 4.41681 24.1188 4.29282 24.1188 3.96736C24.1188 3.84337 24.1568 3.47141 24.1568 2.71199C24.1568 2.03007 24.1188 1.51862 24.0426 1.02268C26.1557 1.20866 26.3079 1.23965 26.3079 1.48763C26.3079 1.64261 26.1557 1.7511 25.7559 1.85959V3.50241H28.6113V1.51862C28.5923 0.945185 28.5542 0.526731 28.5161 0.247761C30.6672 0.418243 30.8576 0.573226 30.8576 0.728209C30.8576 0.836697 30.6672 0.960683 30.3056 1.10017V3.50241H33.2562V2.26254C33.2562 1.7201 33.2181 1.27065 33.161 0.991681C35.2359 1.17766 35.4073 1.22416 35.4073 1.48763C35.4073 1.62711 35.274 1.7201 34.9314 1.81309V2.18505C34.9314 3.14595 34.9694 3.79688 34.9694 4.01385C34.9694 4.33932 34.5697 4.5253 33.9224 4.5253C33.4656 4.5253 33.2562 4.40131 33.2562 4.09134V3.85887ZM20.2925 9.70173V6.05963C19.7024 6.71056 19.0361 7.34599 18.2937 7.96592C18.2366 8.02791 18.0081 7.90393 18.0652 7.84193C19.3407 6.16812 20.3115 4.29282 20.9016 2.40203C21.1301 1.62711 21.3204 0.867694 21.4156 0.108276C23.167 0.433741 23.8903 0.650717 23.8903 0.89869C23.8903 1.06917 23.7571 1.13117 23.205 1.27065C22.7291 2.58801 22.0629 3.81237 21.2062 4.95925C22.3294 5.09873 22.4817 5.14523 22.4817 5.31571C22.4817 5.45519 22.3674 5.54818 21.9867 5.70317V13.7158C21.9867 14.1652 21.6631 14.3667 20.9968 14.3667C20.559 14.3667 20.1783 14.2427 20.1783 13.8243C20.1783 13.4213 20.2925 12.1815 20.2925 9.70173Z" fill="#E72410"/>
<path d="M9.1374 9.62445H7.04341C6.70076 11.9957 5.61569 13.0341 3.17905 13.9175C3.08387 13.9485 2.96966 13.8555 3.0458 13.7935C4.60677 12.5226 5.1969 11.5772 5.38726 9.62445H4.39737C3.9405 9.62445 3.48363 9.65545 2.87447 9.71744L2.66508 9.144C3.33134 9.23699 3.84532 9.26799 4.34027 9.26799H5.42533C5.44437 8.81854 5.4634 8.33809 5.4634 7.78015V7.09823H4.79714C4.41641 7.09823 4.03569 7.12922 3.52171 7.19122L3.31231 6.61778C3.8834 6.71077 4.30219 6.74177 4.74003 6.74177H10.8697C11.5931 6.04434 11.8215 5.92035 11.9548 5.92035C12.1261 5.92035 12.3355 6.04434 13.0018 6.49379C13.2873 6.69527 13.4396 6.83476 13.4396 6.94324C13.4396 7.05173 13.3825 7.09823 13.1921 7.09823H10.7745V9.26799H11.2504C12.088 8.46208 12.3165 8.33809 12.4497 8.33809C12.621 8.33809 12.8114 8.46208 13.5538 8.98902C13.8584 9.22149 14.0107 9.36098 14.0107 9.46947C14.0107 9.57796 13.9536 9.62445 13.7632 9.62445H10.7745C10.7936 11.0348 10.8507 12.6621 10.8507 13.2046C10.8507 13.623 10.4699 13.7935 9.84174 13.7935C9.30873 13.7935 9.06126 13.6695 9.06126 13.313C9.06126 13.0186 9.1374 12.0732 9.1374 10.2599V9.62445ZM7.08149 9.26799H9.1374V7.09823H7.17667C7.17667 7.82665 7.15763 8.53957 7.08149 9.26799ZM10.7174 4.77348V4.97496C10.7174 5.36241 10.3938 5.5329 9.74656 5.5329C9.23258 5.5329 9.00415 5.40891 9.00415 5.06795C9.00415 4.52551 9.04222 3.96757 9.04222 1.75131C9.04222 1.17787 9.02318 0.588936 8.96608 0C9.89885 0.309966 10.0321 0.387457 10.9078 0.790414H14.4104C15.0767 0.185979 15.229 0.0929895 15.3813 0.0929895C15.5717 0.0929895 15.7239 0.185979 16.4283 0.650929C16.7519 0.883403 16.8661 0.991892 16.8661 1.11588C16.8661 1.27086 16.7519 1.36385 16.3521 1.56533V3.42513C16.3521 12.1042 16.3712 12.5071 16.3712 12.9256C16.3712 13.4215 16.1808 13.778 15.7811 14.0105C15.4384 14.212 14.9435 14.3049 14.3153 14.3049C13.9536 14.3049 13.9345 14.2739 13.8584 13.9485C13.7442 13.406 13.3444 13.0961 12.0499 12.8171C11.9548 12.8016 11.9548 12.6311 12.0499 12.6311C13.135 12.6931 13.5728 12.7086 14.3533 12.7086C14.5437 12.7086 14.5818 12.6621 14.5818 12.4916V4.77348H10.7174ZM14.5818 2.55722V1.14687H10.7174V2.55722H14.5818ZM10.7174 2.91368V4.41702H14.5818V2.91368H10.7174ZM1.86555 4.77348V13.7005C1.86555 14.119 1.50386 14.3049 0.799523 14.3049C0.247471 14.3049 0.0190362 14.1655 0.0190362 13.7625C0.0190362 12.8016 0.133254 11.4687 0.133254 6.88125C0.133254 4.5875 0.114218 2.29375 0 0C0.989885 0.309966 1.12314 0.371959 2.01784 0.790414H5.34919C5.99642 0.185979 6.14871 0.0929895 6.301 0.0929895C6.49136 0.0929895 6.64365 0.185979 7.32896 0.635431C7.63354 0.836908 7.74776 0.945397 7.74776 1.06938C7.74776 1.20887 7.6145 1.31736 7.1957 1.53433V2.10777C7.1957 3.61111 7.23378 4.66499 7.23378 5.00595C7.23378 5.36242 6.87209 5.5174 6.20582 5.5174C5.71088 5.5174 5.52051 5.39341 5.52051 5.06795V4.77348H1.86555ZM5.52051 2.55722V1.14687H1.86555V2.55722H5.52051ZM1.86555 2.91368V4.41702H5.52051V2.91368H1.86555Z" fill="#E72410"/>
<path d="M226.396 29.9141C228.419 31.2502 229.978 32.7984 231.074 34.5587C232.171 36.3402 232.658 38.1853 232.658 40.094C232.658 42.0027 232.171 43.8478 231.074 45.6293C229.978 47.3896 228.419 48.9378 226.372 50.2951C226.299 50.3375 226.226 50.3587 226.153 50.3587C226.08 50.3587 226.031 50.2951 226.031 50.2315C226.031 50.1679 226.08 50.1254 226.153 50.0618C229.418 47.1775 230.855 43.869 230.855 40.094C230.855 36.3189 229.418 33.0105 226.128 30.105C226.079 30.0625 226.055 30.0201 226.055 29.9565C226.055 29.8929 226.104 29.8505 226.177 29.8505C226.25 29.8505 226.323 29.8717 226.396 29.9141Z" fill="#E72410"/>
<path d="M217.698 42.1087H208.902C208.829 42.448 208.756 42.7662 208.683 43.1055C208 45.7989 206.222 48.1318 203.59 49.6588C203.493 49.7224 203.298 49.5952 203.371 49.5104C205.004 47.7501 205.929 46.0746 206.441 43.5297C206.807 41.6633 206.928 39.3304 206.928 36.1492C206.928 33.6891 206.88 32.0985 206.782 30.7836C208.171 31.2926 208.366 31.3774 209.535 31.9924H217.479C218.307 31.1229 218.502 30.9957 218.697 30.9957C218.941 30.9957 219.16 31.1229 220.134 31.7591C220.573 32.0561 220.719 32.2045 220.719 32.3742C220.719 32.5651 220.646 32.6287 220.061 32.9892V35.3645C220.061 45.3111 220.134 46.0746 220.134 47.432C220.134 48.4287 219.915 48.8741 219.184 49.2346C218.673 49.5104 217.893 49.6588 217.284 49.6588C216.772 49.6588 216.675 49.574 216.601 49.1286C216.455 48.3227 215.529 47.8561 213.824 47.538C213.702 47.5168 213.702 47.2623 213.824 47.2623C215.237 47.3259 216.358 47.3471 217.259 47.3471C217.625 47.3471 217.698 47.2835 217.698 46.9866V42.1087ZM217.698 41.6209V37.1884H209.267C209.243 38.673 209.194 40.1364 208.975 41.6209H217.698ZM217.698 36.7006V32.4802H209.316V33.3073C209.316 34.4314 209.316 35.5766 209.292 36.7006H217.698Z" fill="#E72410"/>
<path d="M200.088 29.9141C200.161 29.8717 200.234 29.8505 200.307 29.8505C200.38 29.8505 200.429 29.8929 200.429 29.9565C200.429 30.0201 200.405 30.0625 200.356 30.105C197.067 33.0105 195.629 36.3189 195.629 40.094C195.629 43.869 197.067 47.1775 200.332 50.0618C200.405 50.1254 200.454 50.1679 200.454 50.2315C200.454 50.2951 200.405 50.3587 200.332 50.3587C200.259 50.3587 200.186 50.3375 200.112 50.2951C198.066 48.9378 196.506 47.3896 195.41 45.6293C194.313 43.8478 193.826 42.0027 193.826 40.094C193.826 38.1853 194.313 36.3402 195.41 34.5587C196.506 32.7984 198.066 31.2502 200.088 29.9141Z" fill="#E72410"/>
<path d="M184.445 47.4957H174.382V48.4712C174.382 49.0863 173.895 49.3196 172.921 49.3196C172.165 49.3196 171.873 49.1287 171.873 48.6197C171.873 46.8806 172.019 45.1204 172.019 38.1217C172.019 35.8312 171.995 33.5407 171.897 31.2502C173.237 31.7168 173.432 31.8017 174.724 32.4591H184.153C185.176 31.5047 185.371 31.3775 185.566 31.3775C185.81 31.3775 186.005 31.5047 187.004 32.2258C187.442 32.5651 187.589 32.7136 187.589 32.8833C187.589 33.0954 187.418 33.2438 186.858 33.5619V35.9797C186.858 42.3845 187.004 46.7958 187.004 48.2592C187.004 48.8742 186.468 49.1287 185.493 49.1287C184.713 49.1287 184.445 48.9166 184.445 48.4288V47.4957ZM184.445 47.0079V40.0304H174.382V47.0079H184.445ZM184.445 39.5426V32.9469H174.382V39.5426H184.445Z" fill="#E72410"/>
<path d="M158.346 34.194V34.3636C162.947 35.178 165.52 37.3497 165.52 40.6752C165.52 45.1883 162.05 48.0386 156.592 48.0386C153.707 48.0386 152.226 47.3939 150.861 46.7152C149.614 46.0366 148.327 44.9507 148.327 43.8649C148.327 43.0505 149.341 42.4058 151.134 42.4058C152.655 42.4058 153.161 44.0345 153.629 44.9847C154.058 45.9687 154.76 46.9867 156.592 46.9867C159.321 46.9867 160.841 44.5096 160.841 40.5734C160.841 38.1302 159.633 34.8048 155.734 35.0423C155.228 35.0762 154.37 35.1441 153.98 35.1441C153.629 35.1441 153.434 35.0762 153.59 34.4654C153.707 33.8207 153.902 33.685 154.331 33.685C154.682 33.685 155.345 33.7868 155.812 33.7868C157.957 33.7868 160.14 32.2937 160.14 28.4932C160.14 25.9143 159.009 23.7426 156.865 23.7426C155.501 23.7426 154.526 24.2516 153.941 25.2696C153.668 25.8464 153.629 26.3894 153.629 26.9662C153.629 28.086 152.382 28.7308 150.705 28.7308C149.497 28.7308 148.912 28.3914 148.912 27.6449C148.912 25.7107 151.953 22.6907 156.865 22.6907C161.309 22.6907 164.584 24.8285 164.584 28.5272C164.584 32.0562 161.66 33.5153 158.346 34.194Z" fill="#E72410"/>
<path d="M142.454 38.8214C143.477 38.8214 144.233 38.6305 145.305 37.8882C145.451 37.761 145.548 37.8034 145.67 37.9094C145.816 38.0367 145.816 38.1215 145.695 38.27C144.647 39.3728 143.404 40.3908 142.064 40.3908C141.016 40.3908 140.237 40.306 138.994 39.7121C137.532 39.0335 136.533 38.5033 135.583 38.5033C134.535 38.5033 133.951 38.5881 132.683 39.3304C132.586 39.4152 132.464 39.3728 132.342 39.2456C132.245 39.1183 132.245 39.0547 132.342 38.9486C133.414 37.867 134.633 36.9551 135.997 36.9551C137.021 36.9551 137.727 37.0823 138.994 37.5913C140.407 38.1852 141.455 38.8214 142.454 38.8214Z" fill="#E72410"/>
<path d="M122.724 29.9141C124.746 31.2502 126.306 32.7984 127.402 34.5587C128.499 36.3402 128.986 38.1853 128.986 40.094C128.986 42.0027 128.499 43.8478 127.402 45.6293C126.306 47.3896 124.746 48.9378 122.7 50.2951C122.627 50.3375 122.554 50.3587 122.48 50.3587C122.407 50.3587 122.359 50.2951 122.359 50.2315C122.359 50.1679 122.407 50.1254 122.48 50.0618C125.745 47.1775 127.183 43.869 127.183 40.094C127.183 36.3189 125.745 33.0105 122.456 30.105C122.407 30.0625 122.383 30.0201 122.383 29.9565C122.383 29.8929 122.432 29.8505 122.505 29.8505C122.578 29.8505 122.651 29.8717 122.724 29.9141Z" fill="#E72410"/>
<path d="M108.007 48.2804V39.0972H103.11C102.428 39.0972 101.77 39.1397 100.868 39.2245L100.6 38.4398C101.624 38.567 102.379 38.6095 103.134 38.6095H108.007V33.7104C108.007 32.3743 107.959 31.3775 107.861 30.6776C111.077 30.9321 111.394 31.1866 111.394 31.4199C111.394 31.632 111.102 31.8229 110.493 31.9925V38.6095H114.367C115.707 37.1885 115.999 37.0188 116.17 37.0188C116.389 37.0188 116.657 37.1885 117.973 38.1217C118.582 38.5458 118.777 38.7367 118.777 38.8852C118.777 39.0336 118.704 39.0972 118.46 39.0972H110.493V48.2804H115.999C117.412 46.7322 117.705 46.5625 117.875 46.5625C118.095 46.5625 118.363 46.7322 119.776 47.7502C120.434 48.2167 120.629 48.4076 120.629 48.5561C120.629 48.7045 120.555 48.7682 120.312 48.7682H101.161C100.454 48.7682 99.7474 48.8106 98.8215 48.8954L98.5535 48.1107C99.5768 48.2379 100.357 48.2804 101.136 48.2804H108.007Z" fill="#E72410"/>
<path d="M96.4157 29.9141C96.4888 29.8717 96.5619 29.8505 96.635 29.8505C96.7081 29.8505 96.7568 29.8929 96.7568 29.9565C96.7568 30.0201 96.7325 30.0625 96.6837 30.105C93.3944 33.0105 91.9569 36.3189 91.9569 40.094C91.9569 43.869 93.3944 47.1775 96.6594 50.0618C96.7325 50.1254 96.7812 50.1679 96.7812 50.2315C96.7812 50.2951 96.7325 50.3587 96.6594 50.3587C96.5863 50.3587 96.5132 50.3375 96.4401 50.2951C94.3934 48.9378 92.834 47.3896 91.7376 45.6293C90.6411 43.8478 90.1538 42.0027 90.1538 40.094C90.1538 38.1853 90.6411 36.3402 91.7376 34.5587C92.834 32.7984 94.3934 31.2502 96.4157 29.9141Z" fill="#E72410"/>
<path d="M80.7733 47.4957H70.7103V48.4712C70.7103 49.0863 70.223 49.3196 69.2484 49.3196C68.4931 49.3196 68.2007 49.1287 68.2007 48.6197C68.2007 46.8806 68.3469 45.1204 68.3469 38.1217C68.3469 35.8312 68.3225 33.5407 68.225 31.2502C69.5651 31.7168 69.7601 31.8017 71.0514 32.4591H80.4809C81.5042 31.5047 81.6991 31.3775 81.8941 31.3775C82.1377 31.3775 82.3326 31.5047 83.3316 32.2258C83.7702 32.5651 83.9164 32.7136 83.9164 32.8833C83.9164 33.0954 83.7458 33.2438 83.1854 33.5619V35.9797C83.1854 42.3845 83.3316 46.7958 83.3316 48.2592C83.3316 48.8742 82.7956 49.1287 81.821 49.1287C81.0413 49.1287 80.7733 48.9166 80.7733 48.4288V47.4957ZM80.7733 47.0079V40.0304H70.7103V47.0079H80.7733ZM80.7733 39.5426V32.9469H70.7103V39.5426H80.7733Z" fill="#E72410"/>
<path d="M49.2166 26.1856L47.6962 26.5589C47.3064 26.6607 47.1504 26.6268 47.0335 26.1856C46.9165 25.8124 46.9165 25.7106 47.3843 25.5748C49.6455 24.8623 53.0761 23.6067 55.6881 22.5209C55.961 22.5209 56.3118 22.6905 56.3118 22.9281C56.2729 25.6427 56.1559 27.6787 56.1559 30.4273V41.0483C56.1559 44.4077 56.1949 44.8488 56.5847 45.5614C56.9746 46.274 58.2611 46.3079 59.8984 46.4437C60.1713 46.4776 60.2493 46.5794 60.2493 46.9526C60.2493 47.3598 60.1713 47.4277 59.8984 47.4277C58.1051 47.3598 55.961 47.3259 54.1287 47.3259C52.1015 47.3259 50.0353 47.3598 48.203 47.4277C47.8911 47.4277 47.8132 47.3598 47.8132 46.9526C47.8132 46.5794 47.9301 46.4776 48.203 46.4437C49.8404 46.3419 51.1269 46.3079 51.5167 45.5614C51.9456 44.7809 51.9066 43.3218 51.9066 41.0483V28.9003C51.9066 27.6448 51.8286 26.6607 51.5167 26.2874C51.2438 25.9142 50.4252 25.8802 49.2166 26.1856Z" fill="#E72410"/>
<path d="M35.528 42.1087H26.7321C26.659 42.448 26.5859 42.7662 26.5128 43.1055C25.8305 45.7989 24.0519 48.1318 21.4204 49.6588C21.3229 49.7224 21.128 49.5952 21.2011 49.5104C22.8336 47.7501 23.7595 46.0746 24.2711 43.5297C24.6366 41.6633 24.7585 39.3304 24.7585 36.1492C24.7585 33.6891 24.7097 32.0985 24.6123 30.7836C26.0011 31.2926 26.196 31.3774 27.3656 31.9924H35.3087C36.1371 31.1229 36.332 30.9957 36.527 30.9957C36.7706 30.9957 36.9899 31.1229 37.9645 31.7591C38.4031 32.0561 38.5493 32.2045 38.5493 32.3742C38.5493 32.5651 38.4762 32.6287 37.8914 32.9892V35.3645C37.8914 45.3111 37.9645 46.0746 37.9645 47.432C37.9645 48.4287 37.7452 48.8741 37.0143 49.2346C36.5026 49.5104 35.7229 49.6588 35.1138 49.6588C34.6021 49.6588 34.5046 49.574 34.4315 49.1286C34.2853 48.3227 33.3595 47.8561 31.6539 47.538C31.532 47.5168 31.532 47.2623 31.6539 47.2623C33.0671 47.3259 34.1879 47.3471 35.0894 47.3471C35.4549 47.3471 35.528 47.2835 35.528 46.9866V42.1087ZM35.528 41.6209V37.1884H27.0975C27.0732 38.673 27.0244 40.1364 26.8052 41.6209H35.528ZM35.528 36.7006V32.4802H27.1463V33.3073C27.1463 34.4314 27.1463 35.5766 27.1219 36.7006H35.528Z" fill="#E72410"/>
<path d="M11.4225 33.5153C15.7888 35.3816 17.3482 37.5194 17.3482 41.0824C17.3482 44.9168 14.1515 48.0386 8.69359 48.0386C3.39167 48.0386 0 44.9507 0 41.3538C0 38.5035 2.33908 36.6711 6.04263 35.1102C2.18314 33.4474 0.779694 31.5472 0.779694 28.5272C0.779694 25.541 4.09339 22.6907 8.73258 22.6907C13.2938 22.6907 16.5295 25.066 16.5295 28.12C16.5295 30.6989 14.8922 32.0562 11.4225 33.5153ZM10.292 32.9724C12.1242 31.9883 12.709 30.3256 12.709 28.1539C12.709 25.4732 10.9937 23.7426 8.73258 23.7426C6.19857 23.7426 4.52223 25.4392 4.52223 27.9842C4.52223 29.8505 5.41887 31.0382 10.292 32.9724ZM7.17319 35.6531C4.6002 36.9765 4.13238 38.9107 4.13238 41.3878C4.13238 44.7811 5.96466 46.9867 8.77156 46.9867C11.6954 46.9867 13.5277 44.8489 13.5277 41.5574C13.5277 39.1143 11.9293 37.6551 7.17319 35.6531Z" fill="#E72410"/>
<g clip-path="url(#clip0_104_861)">
<path d="M9.18149 62.717C8.87617 63.4316 8.11288 65.2858 7.80757 66.1051C7.41502 67.1277 7.2042 67.639 7.91661 67.639C9.19603 67.639 10.5918 66.3823 10.5918 64.5836C10.5918 62.563 9.14514 60.8628 6.24464 60.8628C3.34413 60.8628 1.0688 62.8833 1.0688 65.6308C1.0688 68.3782 3.2569 69.7519 5.72124 69.7519C7.2042 69.7519 8.42547 69.407 9.45046 68.7786C9.50861 68.7417 9.63219 68.7293 9.71943 68.8156C9.80666 68.9018 9.77758 68.9819 9.71943 69.0066C8.5127 69.7643 7.45863 70.2078 5.61219 70.2078C2.18829 70.2078 -0.00708008 68.4521 -0.00708008 65.6677C0.000189359 62.5384 3.01701 60.4624 6.22283 60.4624C9.42865 60.4624 11.5368 62.1133 11.5368 64.5712C11.5368 65.9757 10.1774 67.9963 7.64037 67.9963C6.71715 67.9963 6.01201 67.8053 6.19375 66.9983C5.71397 67.6883 5.13968 67.984 4.53632 67.984C3.32959 67.984 2.75531 67.5589 2.75531 66.5486C2.75531 64.8238 4.5654 62.5692 6.7535 62.5692C7.037 62.5692 7.45136 62.6616 7.58221 63.0558L7.72033 62.7109H9.18149V62.717ZM4.34731 66.7458C4.34731 67.2694 4.43455 67.602 4.78348 67.602C5.13241 67.602 5.93205 67.331 6.76077 65.1564C7.09516 64.3248 7.21147 63.7643 7.21147 63.4008C7.21147 63.0374 7.05881 62.8772 6.86254 62.8772C5.47408 62.8772 4.34004 65.409 4.34004 66.7396L4.34731 66.7458Z" fill="#E72410"/>
<path d="M22.9133 61.177C23.444 60.7396 23.5603 60.6657 23.6839 60.6657C23.8366 60.6657 23.9674 60.7396 24.578 61.14C24.8615 61.331 24.9561 61.4234 24.9561 61.522C24.9561 61.6636 24.927 61.7129 24.3672 61.8792C22.2518 64.7437 19.4604 66.3577 15.2223 67.0846C15.1496 67.0969 15.1132 66.9429 15.1932 66.9183C17.1123 66.2776 18.7261 65.446 20.0419 64.4604C20.0128 64.4727 19.9692 64.4727 19.9183 64.4727C19.6784 64.4727 19.5403 64.3556 19.3731 64.0107C19.1187 63.4871 18.9079 63.216 18.5444 62.9265C17.6866 63.4871 16.6907 63.9244 15.4331 64.3433C15.3604 64.368 15.2804 64.2263 15.3459 64.1893C16.7198 63.4624 17.9847 62.3597 18.9079 61.2324C19.3731 60.6719 19.7366 60.0805 19.9619 59.5322C21.3068 59.9265 21.6339 60.0805 21.6339 60.2776C21.6339 60.4193 21.5249 60.4809 21.0742 60.5487C20.907 60.7643 20.7252 60.986 20.558 61.177H22.9133ZM25.9302 65.3351C26.4608 64.8854 26.5771 64.8115 26.7007 64.8115C26.8534 64.8115 26.9842 64.8854 27.6094 65.2858C27.8929 65.4768 27.9874 65.5692 27.9874 65.6678C27.9874 65.8341 27.9147 65.8957 27.4131 66.0374C25.0869 69.3146 21.9029 70.7992 16.5453 71.3105C16.4726 71.3228 16.4217 71.1441 16.5017 71.1318C19.2059 70.5158 21.2414 69.7396 22.8552 68.6739H22.8116C22.4772 68.6739 22.3899 68.6 22.1791 68.1133C21.9683 67.5774 21.6775 67.2324 21.285 66.9491C20.1946 67.5651 18.9588 68.0333 17.4685 68.3967C17.3958 68.409 17.3013 68.292 17.3595 68.2673C19.1987 67.4973 20.9506 66.2098 22.0701 64.9039C22.4336 64.4788 22.7171 64.0599 22.8988 63.6472C24.2436 64.0291 24.5635 64.1339 24.5635 64.3495C24.5635 64.4912 24.4399 64.5528 24.0038 64.6205C23.7929 64.8792 23.5821 65.1072 23.3568 65.3351H25.9374H25.9302ZM20.2891 61.4727C19.8384 61.9593 19.3222 62.409 18.748 62.791C19.9256 62.9573 20.558 63.3269 20.558 63.8628C20.558 63.9367 20.5435 64.0291 20.4999 64.0907C21.4667 63.3084 22.2518 62.4275 22.8988 61.4665H20.2891V61.4727ZM23.0515 65.6308C22.6153 66.0682 22.0846 66.4378 21.5394 66.7827C22.8261 66.9983 23.4731 67.4111 23.4731 67.9963C23.4731 68.101 23.444 68.1873 23.4149 68.2797C24.3963 67.5404 25.2105 66.6657 25.9374 65.6308H23.0515Z" fill="#E72410"/>
<path d="M41.8574 60.9368C42.5989 60.2222 42.7152 60.1421 42.8388 60.1421C42.9914 60.1421 43.1223 60.216 43.8783 60.6904C44.2272 60.906 44.3145 60.9984 44.3145 61.0969C44.3145 61.1893 44.2563 61.2263 44.0891 61.2263H32.9015V61.7376C32.9015 64.5035 32.7488 66.37 32.3417 67.8115C31.9492 69.1544 31.3313 70.1277 30.3935 71.1134C30.3499 71.1626 30.1972 71.0764 30.2263 71.0086C30.7061 69.9306 31.0259 68.9203 31.2222 67.7314C31.4185 66.5425 31.4912 65.1873 31.4912 63.4193C31.4912 62.2674 31.4476 61.1647 31.3676 60.2099C32.1963 60.5302 32.3199 60.5795 33.0905 60.9245H36.9869V60.2468C36.9869 60.0189 36.9578 59.7602 36.9142 59.4891C38.7097 59.6308 38.8769 59.7725 38.8769 59.9142C38.8769 60.0189 38.7097 60.1298 38.3899 60.2592V60.9245H41.8501L41.8574 60.9368ZM37.4812 66.4871C36.1509 66.5487 34.9006 66.524 33.7811 66.4378C33.7084 66.4378 33.7084 66.2961 33.7811 66.2961C35.9692 66.1298 37.961 65.8587 39.3858 65.5569C40.1127 65.4029 40.687 65.2366 41.0578 65.0702C41.8283 65.6308 42.0973 65.8895 42.0973 66.0436C42.0973 66.1175 41.9955 66.1852 41.792 66.1852C41.6829 66.1852 41.5521 66.1729 41.3994 66.1236C40.5271 66.253 39.662 66.3392 38.8333 66.4193V67.4296H41.065C41.7266 66.8136 41.9083 66.715 42.0173 66.715C42.1555 66.715 42.3372 66.8197 43.0132 67.2263C43.3186 67.4049 43.4349 67.5097 43.4349 67.5959C43.4349 67.6822 43.3913 67.7253 43.2386 67.7253H38.8333V68.7602H41.8865C42.5989 68.1195 42.7734 68.0148 42.8824 68.0148C43.0205 68.0148 43.2023 68.1195 43.8783 68.5384C44.1836 68.7294 44.2999 68.8341 44.2999 68.9203C44.2999 69.0066 44.2563 69.0497 44.1037 69.0497H38.8333C38.8333 69.6288 38.8624 70.1524 38.8624 70.3803C38.8624 70.7006 38.7388 70.9532 38.4989 71.138C38.2445 71.3413 37.8519 71.446 37.3213 71.446C37.0378 71.446 36.9869 71.4091 36.9142 71.138C36.747 70.6021 36.5507 70.4973 35.3295 70.2571C35.2568 70.2448 35.2568 70.0785 35.3295 70.0785C36.0055 70.1031 36.7034 70.1277 37.234 70.1277C37.4158 70.1277 37.4739 70.0908 37.4739 69.9491V69.0559H33.9555C33.5775 69.0559 33.214 69.0805 32.7197 69.1298L32.5525 68.6555C33.1123 68.7294 33.5194 68.7602 33.941 68.7602H37.4739V67.7253H34.7406C34.3917 67.7253 34.0282 67.7499 33.563 67.7992L33.3958 67.3249C33.9265 67.3988 34.319 67.4296 34.7116 67.4296H37.4739V66.4932L37.4812 66.4871ZM41.1014 62.945C41.5812 63.3639 42.0828 63.6842 42.6425 63.906C43.2023 64.1216 43.7911 64.2509 44.4381 64.2879C44.5108 64.2879 44.5108 64.3926 44.4381 64.4049C44.0891 64.4789 43.8492 64.713 43.7257 65.1195C43.682 65.2489 43.6166 65.3105 43.5294 65.3105C43.4203 65.3105 43.195 65.2058 42.817 64.9902C42.4971 64.8115 42.2427 64.6329 42.0028 64.4296C41.6539 64.1093 41.3558 63.7396 40.9778 63.1729C41.0069 63.7889 41.036 64.3618 41.036 64.6206C41.036 64.9409 40.8542 65.0702 40.3744 65.0702C39.9964 65.0702 39.9237 64.9778 39.9237 64.6329C39.9237 64.4173 39.9528 64.1955 39.9819 63.752C39.1386 64.4665 38.3826 64.8793 37.2922 65.2612C37.2195 65.2859 37.1541 65.1565 37.2195 65.1195C38.2154 64.4912 38.9424 63.8259 39.4803 62.945H36.2018L36.2163 63.3824C37.1977 63.4563 37.6484 63.6904 37.6484 64.0846C37.6484 64.3249 37.4521 64.522 37.2122 64.522C37.0014 64.522 36.9069 64.4604 36.6525 64.1277C36.4853 63.9368 36.3472 63.7828 36.2163 63.678C36.2309 64.2694 36.2454 65.0086 36.2454 65.2242C36.2454 65.5569 36.0927 65.6493 35.5475 65.6493C35.2422 65.6493 35.1259 65.5569 35.1259 65.3413C35.1259 65.1996 35.155 64.639 35.1695 63.9737C34.4135 64.5774 33.672 64.9594 32.9233 65.2304C32.8506 65.255 32.7561 65.1565 32.8142 65.1134C33.8101 64.4111 34.399 63.7705 34.8497 62.9511H34.1736C33.8247 62.9511 33.5121 62.9758 33.2068 63.0251L33.0832 62.5507C33.4031 62.6247 33.6866 62.6555 34.1882 62.6555H35.1114V62.2735C35.1114 62.0025 35.1114 61.9162 35.0678 61.4419C36.369 61.5713 36.5798 61.6452 36.5798 61.7992C36.5798 61.9039 36.4926 61.9655 36.2018 62.0826V62.6616H37.0596C37.4231 62.2366 37.5612 62.138 37.7066 62.138C37.8447 62.138 37.9319 62.1996 38.3681 62.5076C38.4553 62.5692 38.5207 62.6247 38.5644 62.6616H39.8801V62.138C39.8801 61.8177 39.8801 61.7684 39.822 61.4481C41.2395 61.6144 41.3631 61.639 41.3631 61.793C41.3631 61.8793 41.2759 61.9594 41.0142 62.0887V62.6678H42.1336C42.6207 62.1811 42.7952 62.0764 42.9042 62.0764C43.0423 62.0764 43.2095 62.1811 43.6602 62.483C43.8565 62.6247 43.9801 62.7417 43.9801 62.8279C43.9801 62.9142 43.9365 62.9573 43.7838 62.9573H41.0941L41.1014 62.945Z" fill="#E72410"/>
<path d="M53.6122 67.5528C54.3101 68.3351 55.2406 68.945 56.4982 69.29C57.5522 69.5857 58.8389 69.752 60.3946 69.7889C60.4673 69.7889 60.4673 69.9183 60.3946 69.9429C59.8349 70.1585 59.5659 70.4789 59.3551 71.1319C59.326 71.2243 59.246 71.2735 59.1443 71.2735C58.9771 71.2735 58.7226 71.2243 58.3882 71.1442C57.5741 70.9532 56.4109 70.5035 55.764 70.1462C54.7099 69.5549 53.9248 68.7664 53.3796 67.7807C53.0597 68.5507 52.5509 69.2037 51.8239 69.715C50.6027 70.5959 48.8217 71.1257 46.51 71.2735C46.4373 71.2735 46.3864 71.0826 46.4664 71.0703C48.3055 70.713 49.7085 70.0969 50.6754 69.253C51.2496 68.7664 51.6567 68.2058 51.9112 67.5528H48.0802C47.6876 67.5528 47.2951 67.5774 46.7789 67.6267L46.6117 67.1524C47.186 67.2263 47.6077 67.2571 48.0293 67.2571H51.9984C52.122 66.8321 52.1947 66.3885 52.1801 65.9142C54.1429 66.1421 54.1865 66.1544 54.1865 66.3516C54.1865 66.5056 54.0193 66.6103 53.6413 66.6965C53.6122 66.8875 53.5831 67.0661 53.5322 67.2571H57.654C58.3519 66.5672 58.5336 66.4625 58.6354 66.4625C58.7735 66.4625 58.9407 66.5672 59.6313 67.023C59.9366 67.2263 60.0529 67.331 60.0529 67.4173C60.0529 67.5035 60.0093 67.5466 59.8567 67.5466H53.6049L53.6122 67.5528ZM52.3909 63.752H49.3596C49.0397 63.752 48.7126 63.7766 48.291 63.8259L48.1238 63.3516C48.6108 63.4255 48.9525 63.4563 49.316 63.4563H52.3982V61.9594H48.5163C48.1819 61.9594 47.8548 61.984 47.3968 62.0333L47.2296 61.559C47.7312 61.6329 48.0874 61.6637 48.4655 61.6637H54.2301C54.5136 61.2017 54.7462 60.7828 54.9425 60.3824C55.1097 60.062 55.2333 59.7664 55.306 59.5015C56.6363 59.9635 57.1015 60.1791 57.1015 60.3454C57.1015 60.5117 56.978 60.5487 56.4255 60.5733C55.9239 60.9861 55.3351 61.3926 54.8553 61.6637H57.2542C57.9303 61.023 58.112 60.9245 58.221 60.9245C58.3592 60.9245 58.5264 61.0292 59.1588 61.4358C59.4423 61.639 59.5659 61.7438 59.5659 61.83C59.5659 61.9162 59.5223 61.9594 59.3696 61.9594H53.8303V63.4563H56.3092C56.9707 62.8156 57.1524 62.7109 57.2615 62.7109C57.3996 62.7109 57.5668 62.8156 58.1992 63.2345C58.4537 63.4132 58.5772 63.5302 58.5772 63.6165C58.5772 63.7027 58.5336 63.7458 58.381 63.7458H53.8376V65.3967H57.6904C58.3664 64.7314 58.5482 64.6267 58.6572 64.6267C58.7953 64.6267 58.9625 64.7314 59.624 65.1627C59.9075 65.3659 60.0311 65.4707 60.0311 65.5569C60.0311 65.6431 59.9875 65.6863 59.8349 65.6863H47.9857C47.6077 65.6863 47.2296 65.7109 46.7353 65.7602L46.5681 65.2859C47.1133 65.3598 47.535 65.3906 47.9421 65.3906H52.4128V63.7397L52.3909 63.752ZM51.2424 61.5528C50.8934 61.5528 50.7771 61.4481 50.639 61.0538C50.4573 60.4748 50.1738 60.0559 49.7812 59.7109C49.7376 59.6616 49.7812 59.5815 49.8539 59.5939C51.3369 59.7725 52.042 60.2961 52.042 60.9245C52.042 61.3372 51.8021 61.5528 51.2424 61.5528Z" fill="#E72410"/>
<path d="M63.6512 65.7848C63.1642 66.1544 62.6408 66.4871 62.0665 66.7951C62.0083 66.832 61.8993 66.7335 61.9429 66.678C62.9097 65.754 63.6948 64.7437 64.2546 63.7335C64.509 63.2715 64.7198 62.8095 64.8725 62.3536C66.3991 62.9019 66.4718 62.945 66.4718 63.099C66.4718 63.216 66.3482 63.2776 65.9556 63.37C65.5486 63.9491 65.1124 64.4727 64.6253 64.9409C65.2432 65.0333 65.3377 65.0949 65.3377 65.2242C65.3377 65.3413 65.2505 65.4029 64.9452 65.5199V70.8546C64.9452 71.2119 64.6908 71.3782 64.1746 71.3782C63.8548 71.3782 63.5567 71.2612 63.5567 70.8916C63.5567 70.5589 63.644 69.561 63.644 67.5405V65.791L63.6512 65.7848ZM65.9556 60.5918C64.9306 61.7561 63.673 62.6616 62.2555 63.2653C62.1973 63.2899 62.0883 63.1791 62.1537 63.1359C62.8661 62.563 63.5567 61.7437 64.0874 60.9491C64.4218 60.4501 64.6762 59.9635 64.8143 59.5569C65.9774 59.9142 66.6099 60.1852 66.6099 60.3639C66.6099 60.5179 66.4136 60.5795 65.9629 60.5918H65.9556ZM67.7585 65.1688C67.3368 67.177 66.748 68.4953 65.723 69.6596C65.6794 69.7088 65.5704 69.6472 65.5849 69.5856C66.0647 68.2181 66.4936 66.0928 66.4936 64.9039C66.4936 64.7869 66.479 64.6082 66.4645 64.3803C67.9257 64.6144 68.2019 64.7006 68.2019 64.8916C68.2019 65.0086 68.1583 65.0333 67.7657 65.175L67.7585 65.1688ZM69.7503 62.9203C69.7503 67.485 69.8593 69.8936 69.8593 70.7745C69.8593 71.1565 69.5395 71.3474 68.9506 71.3474C68.5436 71.3474 68.3473 71.2058 68.3473 70.8854C68.3473 70.2817 68.4345 68.4522 68.4345 64.8115V62.9203H67.4531C67.1987 62.9203 66.937 62.945 66.5953 62.9943L66.4281 62.5199C66.8207 62.5938 67.126 62.6246 67.4241 62.6246H68.4345C68.42 60.6904 68.3909 60.1051 68.2964 59.6554C70.1719 59.7971 70.2446 59.8218 70.2446 60.0251C70.2446 60.1421 70.1865 60.1791 69.743 60.37V62.6246H70.3464C70.8262 62.1257 71.0079 62.021 71.1169 62.021C71.2551 62.021 71.4223 62.1257 71.9166 62.446C72.1274 62.6 72.251 62.7047 72.251 62.791C72.251 62.8772 72.2074 62.9203 72.0547 62.9203H69.743H69.7503ZM71.2405 61.8854C70.9715 61.8854 70.8916 61.8115 70.7753 61.4357C70.6517 61.0784 70.3973 60.6904 70.0992 60.3885C70.0556 60.3392 70.1283 60.2591 70.2083 60.2715C71.4441 60.5548 71.8657 60.8197 71.8657 61.2817C71.8657 61.6021 71.5822 61.8854 71.2478 61.8854H71.2405ZM71.4804 68.9203C71.0442 68.9203 70.9207 68.7047 70.9207 67.5281C70.9207 66.5179 70.6953 65.5815 70.2228 64.3803C70.1937 64.3187 70.2955 64.2941 70.3464 64.3433C71.5967 65.6616 72.28 66.9552 72.28 68.0394C72.28 68.5754 71.9602 68.9203 71.4804 68.9203ZM74.6208 68.1257C74.6208 68.9696 74.6353 69.6719 74.6353 69.9429C74.6353 70.3926 74.6208 70.5343 74.5118 70.7006C74.3155 71.021 73.7121 71.2612 73.0797 71.2612C72.8543 71.2612 72.8107 71.2119 72.7598 70.9532C72.6726 70.4789 72.4545 70.3495 71.3859 70.1092C71.3132 70.0969 71.3278 69.9552 71.4004 69.9552C72.0183 69.9922 72.5781 70.0168 73.0433 70.0168C73.2396 70.0168 73.2832 69.9922 73.2832 69.8382V63.9183H72.6072C72.3527 63.9183 72.091 63.9429 71.7494 63.9922L71.5822 63.5179C71.9747 63.5918 72.28 63.6226 72.5781 63.6226H74.301C74.8316 63.0497 75.0134 62.945 75.1151 62.945C75.2532 62.945 75.4204 63.0497 75.9438 63.4316C76.1692 63.598 76.2928 63.7027 76.2928 63.7889C76.2928 63.8752 76.2492 63.9183 76.0965 63.9183H74.6135V68.1257H74.6208ZM73.9884 60.7704C74.5336 60.1914 74.7153 60.0928 74.8171 60.0928C74.9552 60.0928 75.1224 60.1975 75.6458 60.5795C75.8711 60.7458 75.9947 60.8505 75.9947 60.9368C75.9947 61.023 75.9511 61.0661 75.7985 61.0661H73.1742C72.9198 61.0661 72.6581 61.0908 72.3164 61.14L72.1492 60.6657C72.5417 60.7396 72.8471 60.7704 73.1451 60.7704H73.9884Z" fill="#E72410"/>
<path d="M85.4594 63.6349C85.9392 65.3597 86.8333 66.7458 88.2654 67.8546C89.2759 68.6493 90.5916 69.2591 92.0528 69.6595C92.1255 69.6842 92.1109 69.8012 92.0382 69.8259C91.464 70.0291 91.1586 70.3002 90.9842 70.8484C90.926 71.0271 90.8606 71.1072 90.7588 71.1072C90.5626 71.1072 90.2282 70.9655 89.8211 70.7252C89.0214 70.2509 87.9819 69.4439 87.3785 68.7663C86.2445 67.485 85.5394 65.8649 85.2341 63.9675C84.9505 65.9265 84.3399 67.2447 83.1041 68.5199C81.8974 69.7643 80.2981 70.6328 78.1391 71.1811C78.0664 71.1934 77.9719 71.0517 78.03 71.0271C80.3563 69.9675 81.9555 68.5322 82.8933 66.678C83.3004 65.871 83.5912 64.8731 83.7366 63.6349H79.7238C79.3167 63.6349 78.8951 63.6595 78.3499 63.7088L78.1827 63.2345C78.8151 63.3084 79.2877 63.3392 79.7529 63.3392H83.7656C83.8383 62.6246 83.8892 61.8423 83.8892 60.9737C83.8892 60.524 83.8747 60.3084 83.8311 59.7848C85.6411 59.9881 85.9755 60.0682 85.9755 60.3084C85.9755 60.4501 85.8665 60.524 85.4449 60.678C85.4449 61.6636 85.4013 62.6369 85.3067 63.3392H89.1596C89.9592 62.4583 90.1409 62.3536 90.25 62.3536C90.3881 62.3536 90.5335 62.4583 91.3404 63.0435C91.6893 63.3022 91.8056 63.4131 91.8056 63.5055C91.8056 63.5979 91.762 63.6349 91.6093 63.6349H85.4667H85.4594Z" fill="#E72410"/>
<path d="M102.666 62.3412C102.986 61.9162 103.328 61.3802 103.633 60.8566C103.858 60.4316 104.055 60.025 104.178 59.6923C105.538 60.216 105.974 60.4316 105.974 60.5979C105.974 60.7519 105.792 60.8381 105.276 60.8381C104.716 61.3371 103.858 61.9531 103.19 62.335H105.53C106.148 61.7745 106.272 61.6944 106.388 61.6944C106.541 61.6944 106.643 61.7683 107.341 62.3597C107.646 62.6307 107.733 62.7293 107.733 62.834C107.733 63.0373 107.66 63.0743 107.086 63.1174C106.846 63.1297 106.832 63.1297 106.723 63.2221C106.388 63.4808 105.785 63.8012 105.305 64.0168C105.247 64.0414 105.138 63.9798 105.167 63.9121C105.334 63.5794 105.501 63.1975 105.647 62.6307H96.0438C96.1528 63.7211 95.6803 64.3987 94.8662 64.3987C94.4009 64.3987 94.0811 64.1153 94.0811 63.7211C94.0811 63.4377 94.2046 63.2591 94.5463 63.1051C95.3459 62.7724 95.5422 62.5137 95.6803 61.7129C95.6949 61.6513 95.8185 61.6389 95.833 61.7006C95.9057 61.9285 95.9711 62.1379 96.0002 62.3412H102.659H102.666ZM99.9766 66.5794C99.9766 66.1544 99.9766 66.0311 99.933 65.6184C100.464 65.6923 100.856 65.7478 101.14 65.7847C101.881 65.2118 102.245 64.8361 102.681 64.3125H97.7449C97.4904 64.3125 97.2287 64.3371 96.8871 64.4172L96.7199 63.9182C97.1124 63.9921 97.3959 64.0229 97.7012 64.0229H102.71C103.328 63.5486 103.451 63.4747 103.568 63.4747C103.72 63.4747 103.837 63.5486 104.425 63.9983C104.68 64.1893 104.774 64.2817 104.774 64.3802C104.774 64.5589 104.607 64.6205 104.033 64.6389C103.022 65.255 102.419 65.563 101.634 65.8771C101.918 65.9387 101.918 65.9942 101.918 66.0804C101.918 66.2098 101.779 66.296 101.387 66.45V66.8443H105.072C105.843 66.0373 106.025 65.9387 106.127 65.9387C106.265 65.9387 106.432 66.0435 107.231 66.5671C107.595 66.8258 107.719 66.9244 107.719 67.0168C107.719 67.1092 107.675 67.1461 107.522 67.1461H101.394V68.5014C101.409 69.2036 101.438 69.5363 101.438 70.0229C101.438 70.3679 101.35 70.6513 101.169 70.8546C100.9 71.1749 100.398 71.3289 99.6422 71.3289C99.3587 71.3289 99.3223 71.2796 99.2642 70.9962C99.1915 70.5342 98.748 70.3186 97.5413 70.0599C97.4686 70.0476 97.4832 69.8813 97.5558 69.8813C98.3846 69.9305 99.1697 69.9737 99.7149 69.9737C99.8966 69.9737 99.9693 69.9244 99.9693 69.7827V67.1461H95.2006C94.917 67.1461 94.6263 67.1708 94.2482 67.2201L94.0811 66.7457C94.5027 66.8196 94.8225 66.8504 95.1351 66.8504H99.9693V66.5794H99.9766ZM97.803 62.1872C97.3959 62.1872 97.2433 62.0209 97.0761 61.3802C96.9234 60.8566 96.6544 60.3823 96.2619 60.0373C96.2183 59.988 96.2764 59.8956 96.3491 59.9079C97.9484 60.2899 98.6099 60.7642 98.6099 61.4418C98.6099 61.8669 98.261 62.1872 97.7957 62.1872H97.803ZM100.972 61.9716C100.536 61.9716 100.427 61.8422 100.275 61.1523C100.136 60.5917 99.8821 60.142 99.4604 59.7293C99.4168 59.68 99.4604 59.5876 99.5331 59.6123C101.118 60.0619 101.816 60.5609 101.816 61.2632C101.816 61.6882 101.452 61.9654 100.972 61.9654V61.9716Z" fill="#E72410"/>
<path d="M116.9 70.2633H120.571C121.443 69.3269 121.625 69.2284 121.734 69.2284C121.872 69.2284 122.039 69.3331 122.926 69.943C123.333 70.2263 123.457 70.3372 123.457 70.4296C123.457 70.522 123.413 70.559 123.26 70.559H111.622C111.186 70.559 110.684 70.5713 110.175 70.6329L110.008 70.1586C110.641 70.2325 111.128 70.2633 111.608 70.2633H115.351V61.7561C115.351 60.9861 115.322 60.3762 115.264 59.9512C117.256 60.0929 117.438 60.2345 117.438 60.3762C117.438 60.5179 117.256 60.635 116.907 60.7335V64.5836H119.371C120.186 63.6781 120.367 63.5733 120.476 63.5733C120.614 63.5733 120.782 63.6781 121.625 64.2756C122.003 64.5467 122.126 64.6575 122.126 64.7499C122.126 64.8423 122.083 64.8793 121.93 64.8793H116.922V70.2633H116.9Z" fill="#E72410"/>
<path d="M129.941 66.9984H130.755C131.33 66.4378 131.512 66.3331 131.613 66.3331C131.751 66.3331 131.919 66.4378 132.471 66.8074C132.711 66.9737 132.835 67.0785 132.835 67.1647C132.835 67.251 132.791 67.2941 132.638 67.2941H129.934V68.945C130.974 68.791 131.969 68.637 132.624 68.4953C132.696 68.483 132.747 68.6247 132.682 68.6493C131.184 69.3146 129.243 69.9121 126.706 70.4542C126.634 70.7499 126.539 70.8793 126.343 70.8793C126.089 70.8793 126.089 70.8547 125.587 69.3701C126.023 69.3701 126.823 69.3208 127.746 69.216C128.029 69.1914 128.335 69.1544 128.64 69.1113V67.2941H126.801C126.532 67.2941 126.27 67.3187 125.907 67.368L125.74 66.8937C126.132 66.9676 126.437 66.9984 126.735 66.9984H128.64V65.2181H127.419V65.5261C127.419 65.8711 127.164 66.0004 126.663 66.0004C126.27 66.0004 126.118 65.8834 126.118 65.6308C126.118 64.9902 126.19 64.2386 126.19 61.6267C126.19 61.0353 126.176 60.4501 126.081 59.8464C126.823 60.0867 126.881 60.1298 127.564 60.4748H130.944C131.49 59.9512 131.606 59.8711 131.73 59.8711C131.882 59.8711 131.984 59.945 132.529 60.3454C132.755 60.5241 132.849 60.6288 132.849 60.7273C132.849 60.8567 132.776 60.9306 132.413 61.1093V61.7869C132.413 63.6041 132.486 64.8855 132.486 65.292C132.486 65.6247 132.231 65.7664 131.744 65.7664C131.323 65.7664 131.17 65.6616 131.17 65.3844V65.2181H129.934V66.9984H129.941ZM128.64 62.637V60.7705H127.419V62.637H128.64ZM128.64 64.9286V62.9327H127.419V64.9286H128.64ZM131.177 62.637V60.7705H129.941V62.637H131.177ZM131.177 64.9286V62.9327H129.941V64.9286H131.177ZM133.896 64.3926C133.627 64.3926 133.365 64.4173 133.009 64.4974L132.842 63.9984C133.249 64.0723 133.554 64.1031 133.852 64.1031H137.945C138.49 63.5795 138.606 63.4994 138.73 63.4994C138.883 63.4994 138.984 63.5733 139.61 64.0723C139.879 64.3002 139.973 64.405 139.973 64.5097C139.973 64.676 139.886 64.7253 139.493 64.793C139.268 64.83 139.239 64.8423 139.006 65.1134C138.599 65.5261 137.916 66.099 137.465 66.4317C137.407 66.4686 137.269 66.3947 137.298 66.3269C137.647 65.6986 137.945 64.9347 138.083 64.3926H136.542V67.7561C136.542 68.8033 136.586 69.5364 136.586 70.06C136.586 70.5836 136.447 70.7869 136.069 71.0087C135.75 71.1873 135.313 71.3043 134.892 71.3043C134.666 71.3043 134.652 71.2551 134.572 70.8978C134.485 70.4358 134.092 70.2571 132.835 69.9491C132.762 69.9368 132.762 69.7705 132.835 69.7705C133.62 69.8321 134.318 69.8875 134.921 69.8875C135.103 69.8875 135.161 69.8505 135.161 69.7089V64.3988H133.889L133.896 64.3926ZM137.472 60.4748C138.076 59.9881 138.199 59.9265 138.316 59.9265C138.497 59.9265 138.65 59.9881 139.239 60.4748C139.45 60.6534 139.573 60.8197 139.573 60.9121C139.573 61.0785 139.501 61.1277 139.057 61.2078C138.875 61.2325 138.788 61.2694 138.592 61.4111C137.669 62.1011 137.218 62.3967 136.673 62.7048C136.884 62.8834 137.007 63.099 137.007 63.3208C137.007 63.6904 136.687 63.9984 136.251 63.9984C135.902 63.9984 135.786 63.8937 135.553 63.4378C135.248 62.7972 134.855 62.3105 134.361 61.9655C134.303 61.9286 134.361 61.8608 134.434 61.8731C135.248 62.0148 135.88 62.2058 136.324 62.4645C136.811 61.9039 137.167 61.3249 137.458 60.7766H134.049C133.794 60.7766 133.627 60.7889 133.307 60.8505L133.14 60.3885C133.38 60.4378 133.671 60.4625 133.998 60.4748H137.472Z" fill="#E72410"/>
<path d="M148.006 66.6041L152.099 66.1914C152.825 65.2057 152.942 65.1318 153.065 65.1318C153.218 65.1318 153.371 65.2057 154.243 65.7047C154.665 65.945 154.759 66.025 154.759 66.1298C154.759 66.1914 154.686 66.2345 154.548 66.2468L148.013 66.8998V68.9696C148.013 69.7273 148.238 69.8135 150.281 69.8135C152.324 69.8135 153.029 69.7396 153.313 69.4809C153.523 69.2899 153.647 69.0312 154.141 67.6883C154.156 67.6267 154.323 67.6513 154.323 67.7129C154.294 68.1749 154.279 68.6369 154.279 69.0066C154.279 69.2406 154.367 69.3392 154.534 69.4316C154.868 69.6103 154.955 69.7396 154.955 69.9306C154.955 70.2632 154.716 70.5035 154.141 70.6698C153.465 70.8608 152.302 70.9408 150.55 70.9408C147.17 70.9408 146.567 70.6698 146.567 69.1482C146.567 68.7909 146.596 68.446 146.596 67.0353L143.201 67.368C142.641 67.4296 142.292 67.485 141.885 67.5712L141.689 67.1092C142.474 67.1339 142.728 67.1215 143.121 67.0846L146.596 66.7396V64.4357L143.71 64.7191C143.15 64.7684 142.801 64.8361 142.394 64.9224L142.183 64.4604C142.968 64.4727 143.303 64.4604 143.615 64.4234L146.588 64.1277V62.0579C145.338 62.2242 144.022 62.3289 142.677 62.3659C142.605 62.3659 142.554 62.1996 142.634 62.1873C145.309 61.7622 147.664 61.177 149.416 60.4994C150.288 60.1667 151.015 59.8094 151.546 59.4398C152.651 60.0805 153.102 60.4131 153.102 60.6041C153.102 60.7211 153.014 60.7951 152.767 60.7951C152.644 60.7951 152.462 60.7704 152.237 60.7211C150.957 61.1955 149.532 61.5774 148.013 61.8484V63.9983L151.197 63.6903C151.895 62.7848 152.011 62.7047 152.135 62.7047C152.288 62.7047 152.44 62.7786 153.254 63.2283C153.647 63.4624 153.741 63.5363 153.741 63.6411C153.741 63.7027 153.654 63.7458 153.531 63.7581L148.02 64.3063V66.6103L148.006 66.6041Z" fill="#E72410"/>
<path d="M167.27 64.9285C167.451 64.8915 167.619 64.8361 167.735 64.7498C167.873 64.6574 168.069 64.6082 168.476 64.6205C168.811 64.6328 169.138 64.6574 169.371 64.7498C169.676 64.8546 169.821 65.0086 169.821 65.2242C169.821 65.4644 169.581 65.6184 169.174 65.6184C169.102 65.6184 168.891 65.6184 168.644 65.6308C167.859 65.6554 167.088 65.7478 165.125 66.0928C165.38 67.3741 165.612 68.4706 165.867 69.4932C165.954 69.8135 165.99 69.9675 165.99 70.0661C165.99 70.3864 165.612 70.5527 165.234 70.5527C164.9 70.5527 164.704 70.4234 164.631 69.9921C164.435 68.8279 164.224 67.6513 163.969 66.333C162.879 66.5486 162.05 66.7149 161.491 66.9059C161.127 67.0353 160.873 67.1215 160.749 67.2262C160.611 67.3433 160.444 67.3926 160.247 67.3926C159.855 67.3926 159.31 67.0722 158.815 66.6225C158.706 66.5301 158.648 66.3638 158.648 66.2098C158.648 66.1174 158.663 66.0558 158.735 66.0558C158.794 66.0558 158.874 66.0804 158.99 66.1605C159.157 66.2468 159.477 66.3515 159.717 66.3515C160.022 66.3515 160.444 66.3022 161.033 66.1852C161.803 66.0312 162.77 65.8279 163.809 65.6246C163.686 64.9839 163.584 64.3987 163.446 63.7704C162.421 63.9737 161.949 64.0907 161.592 64.1954C161.352 64.257 161.2 64.3002 161.062 64.3618C160.894 64.448 160.778 64.4911 160.611 64.4911C160.444 64.4911 160.175 64.3864 159.797 64.0661C159.419 63.7457 159.281 63.5425 159.281 63.3638C159.281 63.2344 159.324 63.1236 159.39 63.1236C159.455 63.1236 159.499 63.1482 159.586 63.216C159.906 63.4193 160.131 63.5486 160.596 63.5486C160.749 63.5486 160.974 63.524 161.505 63.4316C162.108 63.3269 162.712 63.216 163.272 63.0989C163.003 61.8607 162.937 61.5096 162.821 61.1954C162.777 61.0784 162.734 60.9613 162.639 60.9244C162.399 60.8197 162.123 60.8073 161.854 60.7704C161.745 60.7581 161.687 60.7211 161.687 60.6533C161.687 60.5794 161.883 60.4131 161.992 60.3577C162.145 60.2837 162.356 60.2529 162.595 60.2529C162.85 60.2529 163.293 60.2776 163.86 60.4193C164.209 60.5055 164.478 60.7026 164.478 60.9305C164.478 61.0722 164.435 61.1462 164.369 61.2262C164.311 61.3002 164.217 61.4172 164.246 61.6205C164.289 62.0147 164.318 62.2735 164.427 62.8464C164.893 62.7416 165.467 62.6184 165.969 62.4891C166.092 62.4644 166.208 62.4151 166.361 62.3104C166.528 62.1934 166.768 62.064 167.008 62.064C167.495 62.064 167.808 62.1133 168.033 62.1934C168.244 62.255 168.367 62.4459 168.367 62.5753C168.367 62.6924 168.367 62.7663 168.186 62.8587C168.062 62.908 167.931 62.9326 167.655 62.988C166.63 63.1544 165.62 63.3577 164.587 63.5363C164.696 64.1092 164.813 64.7375 164.951 65.3782C165.932 65.2119 166.674 65.0579 167.262 64.9162L167.27 64.9285Z" fill="#E72410"/>
<path d="M182.434 64.3002C182.688 64.2386 182.768 64.1955 182.899 64.0723C183.008 63.986 183.124 63.9183 183.306 63.9183C183.517 63.9183 183.822 64.023 184.36 64.3556C184.695 64.5589 184.826 64.7253 184.826 64.9039C184.826 65.0702 184.738 65.1873 184.389 65.2365C184.28 65.2489 184.179 65.2612 184.04 65.3659C183.284 65.9696 182.608 66.4378 181.758 66.9244C181.562 67.0415 181.409 67.1154 181.307 67.1154C181.249 67.1154 181.198 67.0908 181.198 67.0415C181.198 66.9922 181.242 66.9121 181.394 66.7704C181.983 66.1421 182.463 65.5138 182.921 64.8546C182.95 64.8053 182.935 64.7807 182.863 64.793C181.954 65.0086 180.871 65.3043 179.977 65.5322C180.086 65.9265 180.173 66.3392 180.326 66.8259C180.566 67.5959 180.813 68.3721 181.067 69.1791C181.154 69.4501 181.264 69.832 181.264 69.9737C181.264 70.214 180.944 70.368 180.646 70.368C180.377 70.368 180.159 70.3064 180.1 70.0723C179.831 69.0127 179.555 67.9347 179.286 66.8751C179.199 66.5302 179.09 66.1482 178.981 65.7602C177.832 66.0805 177.353 66.2468 176.975 66.4008C176.807 66.4747 176.706 66.5179 176.64 66.5795C176.531 66.6719 176.429 66.7211 176.277 66.7335C176.051 66.7458 175.79 66.6287 175.477 66.3515C175.055 65.9942 174.99 65.8402 174.99 65.5815C174.99 65.4398 175.077 65.3413 175.143 65.3413C175.186 65.3413 175.252 65.3905 175.339 65.4583C175.564 65.637 175.841 65.754 176.08 65.754C176.248 65.754 176.444 65.7417 176.64 65.7047C177.302 65.563 178.072 65.3844 178.814 65.2057C178.632 64.5897 178.53 64.2448 178.407 63.8505C178.363 63.6965 178.319 63.6103 178.254 63.4809C178.196 63.3515 178.087 63.2899 177.985 63.2653C177.847 63.2283 177.665 63.216 177.483 63.216C177.396 63.216 177.331 63.2037 177.331 63.1421C177.331 63.0682 177.418 62.9511 177.556 62.8587C177.723 62.7417 177.934 62.6924 178.072 62.6924C178.421 62.6801 178.799 62.7848 179.126 62.8834C179.577 63.025 179.715 63.1667 179.715 63.3084C179.715 63.4255 179.686 63.4994 179.642 63.5795C179.599 63.6534 179.584 63.7088 179.57 63.7704C179.555 63.8197 179.555 63.8751 179.584 64.0107C179.628 64.2448 179.672 64.4604 179.795 65.0086C180.958 64.7376 181.831 64.4727 182.419 64.3187L182.434 64.3002Z" fill="#E72410"/>
<path d="M191.281 62.218C191.281 62.1564 191.339 62.1133 191.433 62.1133C191.492 62.1133 191.571 62.1133 191.717 62.1256C192.306 62.1872 192.967 62.3289 193.636 62.6369C194.334 62.9572 194.676 63.4562 194.676 63.9182C194.676 64.3556 194.312 64.6328 193.861 64.6328C193.578 64.6328 193.287 64.5034 193.12 64.1585C192.996 63.9182 192.815 63.6225 192.487 63.2344C192.109 62.8094 191.746 62.5199 191.382 62.3412C191.31 62.3042 191.273 62.2673 191.273 62.2118L191.281 62.218ZM193.483 68.0209C194.872 67.3309 196.355 66.4747 197.663 65.5137C199.052 64.4665 200.186 63.4562 201.211 62.3905C201.283 62.3166 201.363 62.2734 201.407 62.2734C201.516 62.2734 201.56 62.3227 201.56 62.3905C201.56 62.4583 201.531 62.5199 201.472 62.6061C200.6 63.912 199.691 64.9962 198.332 66.1851C197.031 67.3125 195.766 68.2426 194.305 69.179C194.138 69.2837 193.985 69.4069 193.912 69.487C193.774 69.641 193.578 69.795 193.309 69.795C192.989 69.795 192.793 69.678 192.386 69.3084C191.739 68.717 191.542 68.3843 191.542 68.1194C191.542 67.8546 191.651 67.6328 191.782 67.6328C191.855 67.6328 191.906 67.6821 192.022 67.7991C192.357 68.0948 192.567 68.2734 192.72 68.2734C192.902 68.2734 193.171 68.1687 193.491 68.0147L193.483 68.0209Z" fill="#E72410"/>
<path d="M210.145 64.1461C210.763 64.5157 210.959 64.7991 210.959 65.0702C210.959 65.2734 210.806 65.4275 210.61 65.5199C210.414 65.6123 210.261 65.6862 209.898 65.9942C209.382 66.4316 208.778 66.8628 208.117 67.2755C207.303 67.7745 206.379 68.2242 205.369 68.5691C205.064 68.6739 204.853 68.7108 204.78 68.7108C204.642 68.7108 204.584 68.6739 204.584 68.5938C204.584 68.5014 204.671 68.4767 204.918 68.3351C205.827 67.8114 206.59 67.2755 207.273 66.7088C207.819 66.2591 208.298 65.7724 208.735 65.2611C209.018 64.9162 209.127 64.7498 209.127 64.5712C209.127 64.4418 208.945 64.2509 208.567 64.0353C208.444 63.9737 208.415 63.9305 208.415 63.8936C208.415 63.832 208.764 63.7026 208.974 63.7026C209.309 63.7026 209.607 63.832 210.138 64.1523L210.145 64.1461ZM213.409 63.6225C214.332 63.9059 215.233 64.2755 216.069 64.9285C216.927 65.6061 217.385 66.2344 217.385 66.6964C217.385 67.103 217.16 67.5404 216.6 67.5404C216.011 67.5404 215.873 67.1585 215.662 66.7704C215.313 66.1174 214.921 65.5568 214.47 65.0702C214.034 64.5958 213.561 64.2016 213.038 63.8689C212.856 63.7519 212.769 63.7026 212.769 63.6287C212.769 63.5548 212.827 63.524 212.922 63.524C213.045 63.524 213.227 63.5609 213.423 63.6287L213.409 63.6225ZM216.905 62.1502C216.905 62.7416 216.346 63.2098 215.655 63.2098C214.965 63.2098 214.405 62.7355 214.405 62.1502C214.405 61.565 214.965 61.0907 215.655 61.0907C216.346 61.0907 216.905 61.5527 216.905 62.1502ZM214.826 62.1502C214.826 62.5199 215.204 62.8402 215.655 62.8402C216.106 62.8402 216.469 62.5199 216.469 62.1502C216.469 61.7806 216.091 61.448 215.655 61.448C215.219 61.448 214.826 61.7683 214.826 62.1502Z" fill="#E72410"/>
<path d="M230.281 66.5117C230.855 66.7704 231.321 67.023 231.728 67.294C232.636 67.8854 232.993 68.3782 232.993 68.754C232.993 69.1482 232.673 69.4439 232.295 69.4439C231.917 69.4439 231.633 69.3515 231.357 69.0065C230.826 68.3412 230.303 67.6513 229.605 67.1031C229.016 66.641 228.609 66.3885 228.093 66.1174C226.959 67.14 225.694 67.9593 224.393 68.6246C223.397 69.1236 222.43 69.4686 221.812 69.6349C221.689 69.6718 221.587 69.6965 221.478 69.6965C221.405 69.6965 221.325 69.6718 221.325 69.5794C221.325 69.5302 221.369 69.4624 221.434 69.4378C223.215 68.6185 224.487 67.7868 226.159 66.3392C227.352 65.3043 228.122 64.4049 229.227 62.9511C229.285 62.8772 229.314 62.8217 229.314 62.7971C229.314 62.7601 229.271 62.7478 229.118 62.7601C228.064 62.8649 226.705 63.0558 225.512 63.2714C225.12 63.3454 224.938 63.4131 224.815 63.4747C224.676 63.5363 224.56 63.6164 224.284 63.6164C224 63.6164 223.695 63.4624 223.273 63.0127C222.99 62.7047 222.954 62.5137 222.954 62.1934C222.954 61.9532 223.063 61.8608 223.15 61.8608C223.193 61.8608 223.259 61.91 223.361 62.0148C223.782 62.409 223.949 62.5014 224.4 62.5014C224.582 62.5014 224.96 62.4768 225.549 62.4275C226.785 62.3104 227.795 62.1996 228.871 62.0702C229.154 62.0332 229.336 61.984 229.474 61.8792C229.612 61.7745 229.714 61.7375 229.91 61.7375C230.194 61.7375 230.397 61.8546 230.71 62.0825C231.161 62.4152 231.342 62.6185 231.342 62.7971C231.342 62.9265 231.299 63.0558 230.848 63.179C230.71 63.216 230.623 63.3207 230.485 63.487C229.838 64.294 229.278 64.984 228.435 65.7909C229.147 66.0312 229.75 66.2776 230.259 66.5055L230.281 66.5117Z" fill="#E72410"/>
</g>
<defs>
<clipPath id="clip0_104_861">
<rect width="233" height="12" fill="white" transform="translate(0 59.4398)"/>
</clipPath>
</defs>
</svg>
