<svg width="245" height="174" viewBox="0 0 245 174" fill="none" xmlns="http://www.w3.org/2000/svg">
<path d="M123.927 13.1034V19.3103L138.109 18.2069C140.621 15.5517 141.04 15.3448 141.458 15.3448C141.982 15.3448 142.505 15.5517 145.54 16.8966C147.006 17.5517 147.32 17.7586 147.32 18.0345C147.32 18.2069 147.058 18.3103 146.587 18.3448L123.927 20.1034V25.6897C123.927 27.7241 124.712 27.9655 131.777 27.9655C138.894 27.9655 141.301 27.7586 142.296 27.069C143.028 26.5517 143.447 25.8621 145.174 22.2414C145.226 22.069 145.802 22.1379 145.802 22.3103C145.697 23.5517 145.645 24.7931 145.645 25.7931C145.645 26.4138 145.959 26.6897 146.535 26.931C147.686 27.4138 148 27.7586 148 28.2759C148 29.1724 147.163 29.8276 145.174 30.2759C142.819 30.7931 138.79 31 132.719 31C120.997 31 118.903 30.2759 118.903 26.1724C118.903 25.2069 119.008 24.2759 119.008 20.4828L107.233 21.3793C105.297 21.5517 104.093 21.6897 102.68 21.931L102 20.6897C104.721 20.7586 105.611 20.7241 106.972 20.6207L119.008 19.6897V13.4828L109.013 14.2414C107.076 14.3793 105.873 14.5517 104.46 14.7931L103.727 13.5517C106.448 13.5862 107.6 13.5517 108.699 13.4483L119.008 12.6552V7.06897C114.664 7.51724 110.111 7.7931 105.454 7.89655C105.192 7.89655 105.035 7.44828 105.297 7.41379C114.56 6.27586 122.724 4.68966 128.794 2.86207C131.829 1.96552 134.341 1 136.173 0C139.993 1.72414 141.563 2.62069 141.563 3.13793C141.563 3.44828 141.249 3.65517 140.412 3.65517C139.993 3.65517 139.365 3.58621 138.58 3.44828C134.132 4.72414 129.213 5.75862 123.927 6.48276V12.2759L134.969 11.4483C137.377 9 137.795 8.79311 138.214 8.79311C138.737 8.79311 139.261 9 142.086 10.2069C143.447 10.8276 143.761 11.0345 143.761 11.3103C143.761 11.4828 143.447 11.5862 143.028 11.6207L123.927 13.1034Z" fill="#E72410"/>
<path d="M26.5937 15.8323V30.9581H39.1392C42.1335 28.3353 42.7531 28.0479 43.1145 28.0479C43.5791 28.0479 44.147 28.3353 47.193 30.0599C48.587 30.8503 49 31.1737 49 31.4251C49 31.6766 48.8451 31.7844 48.3288 31.7844H8.52413C7.02694 31.7844 5.32326 31.8204 3.56793 32L3 30.6707C5.16835 30.8862 6.82043 30.9581 8.4725 30.9581H21.2761V7.06587C21.2761 4.91018 21.1728 3.18563 20.9663 2C27.7811 2.39521 28.4007 2.79042 28.4007 3.18563C28.4007 3.58084 27.7811 3.90419 26.5937 4.19162V15.006H35.009C37.7969 12.4551 38.4164 12.1677 38.7778 12.1677C39.2424 12.1677 39.8103 12.4551 42.7015 14.1437C43.9921 14.8982 44.4052 15.2216 44.4052 15.4731C44.4052 15.7246 44.2503 15.8323 43.734 15.8323H26.5937Z" fill="#E72410"/>
<path d="M67.1261 16.5475V21.362H69.9622C71.958 19.838 72.5883 19.5609 72.9559 19.5609C73.4286 19.5609 74.0063 19.838 75.9496 20.8425C76.7899 21.2927 77.2101 21.5698 77.2101 21.8123C77.2101 22.0547 77.0525 22.1587 76.5273 22.1587H67.1261V26.6268C70.75 26.2112 74.2164 25.7955 76.4748 25.4145C76.7374 25.3799 76.895 25.7609 76.6849 25.8302C71.4853 27.6313 64.7101 29.2592 55.8866 30.714C55.624 31.5106 55.3088 31.857 54.6261 31.857C53.7332 31.857 53.7332 31.7877 52 27.7698C53.5231 27.7698 56.3067 27.6313 59.5105 27.3542C60.5084 27.2849 61.5588 27.181 62.6093 27.0771V22.1587H56.2017C55.2563 22.1587 54.3634 22.2279 53.1029 22.3665L52.5252 21.0849C53.8908 21.2927 54.9412 21.362 55.9916 21.362H62.6093V16.5475H58.355V17.3788C58.355 18.314 57.4622 18.6603 55.729 18.6603C54.3635 18.6603 53.8383 18.3486 53.8383 17.6559C53.8383 15.924 54.1009 13.8804 54.1009 6.81452C54.1009 5.22123 54.0483 3.62793 53.7332 2C56.3067 2.6581 56.5168 2.76201 58.8802 3.69721H70.645C72.5357 2.2771 72.9559 2.06927 73.3761 2.06927C73.9013 2.06927 74.2689 2.2771 76.1597 3.35084C76.9475 3.83576 77.2626 4.11285 77.2626 4.38994C77.2626 4.73631 77 4.94414 75.7395 5.42905V7.2648C75.7395 12.1832 76.0021 15.6469 76.0021 16.7553C76.0021 17.6559 75.1093 18.0369 73.4286 18.0369C71.958 18.0369 71.4328 17.7598 71.4328 16.9978V16.5475H67.1261ZM67.1261 15.7508H71.4328V10.3475H67.1261V15.7508ZM67.1261 9.55084H71.4328V4.49386H67.1261V9.55084ZM58.355 15.7508H62.6093V10.3475H58.355V15.7508ZM58.355 9.55084H62.6093V4.49386H58.355V9.55084ZM85.2983 14.2961H80.8866C79.9412 14.2961 79.0483 14.3654 77.7878 14.5732L77.2101 13.2223C78.6281 13.4302 79.6786 13.4994 80.729 13.4994H94.9622C96.8529 12.0793 97.2731 11.8715 97.6933 11.8715C98.2185 11.8715 98.5861 12.0793 100.74 13.4302C101.685 14.0536 102 14.3307 102 14.6078C102 15.0581 101.685 15.1966 100.319 15.3698C99.5315 15.4737 99.4265 15.5084 98.6386 16.2358C97.2206 17.3441 94.8572 18.9028 93.2815 19.8034C93.0714 19.9073 92.5988 19.6994 92.7038 19.5263C93.9118 17.8291 94.9622 15.7508 95.4349 14.2961H90.0777V23.4056C90.0777 26.2458 90.2353 28.2201 90.2353 29.6402C90.2353 31.0257 89.7626 31.6145 88.4496 32.2034C87.3466 32.6883 85.8235 33 84.3529 33C83.5651 33 83.5126 32.8615 83.25 31.8916C82.9349 30.6447 81.5693 30.1598 77.2101 29.3285C76.9475 29.2939 76.9475 28.8436 77.2101 28.8436C79.9412 29.0168 82.3571 29.1553 84.458 29.1553C85.0882 29.1553 85.2983 29.0514 85.2983 28.6704V14.2961ZM81.2542 3.69721H93.334C95.4349 2.38101 95.855 2.20782 96.2752 2.20782C96.9055 2.20782 97.4307 2.38101 99.479 3.69721C100.214 4.18212 100.634 4.6324 100.634 4.87486C100.634 5.32514 100.372 5.46369 98.8488 5.67151C98.2185 5.74078 97.9034 5.84469 97.2206 6.2257C94.0168 8.09609 92.4412 8.89274 90.5504 9.72402C91.2857 10.2089 91.7059 10.7978 91.7059 11.3866C91.7059 12.3911 90.6029 13.2223 89.0798 13.2223C87.8719 13.2223 87.4517 12.9453 86.6639 11.6983C85.6135 9.96648 84.2479 8.65028 82.5147 7.71508C82.3046 7.61117 82.5147 7.43799 82.7773 7.47263C85.6134 7.85363 87.8193 8.37318 89.3424 9.06592C91.0231 7.5419 92.2836 5.98324 93.2815 4.49386H81.4118C80.5189 4.49386 79.9412 4.52849 78.8382 4.70168L78.2605 3.45475C79.1008 3.5933 80.0987 3.66257 81.2542 3.69721Z" fill="#E72410"/>
<path d="M193.374 54.4591C196.741 49.5122 197.444 48.7907 198.158 48.7907C199.043 48.7907 199.757 49.5122 203.385 53.8636C205.063 56.0393 205.596 56.8867 205.596 57.8486C205.596 59.1769 204.712 60.1388 202.229 61.2267C194.167 83.7969 179.643 100.573 161.66 107.455C161.218 107.581 160.776 106.012 161.127 105.76C167.681 101.168 173.701 95.2595 178.928 88.0109C178.486 88.3774 177.953 88.6179 177.42 88.6179C175.822 88.6179 175.209 87.7705 174.586 84.8733C173.52 80.0409 172.545 77.5102 170.425 74.7391C167.772 77.3957 164.846 79.686 161.739 81.7357C161.297 81.9762 160.764 81.0143 161.116 80.6478C167.409 73.2848 173.078 62.784 176.797 52.5238C178.396 47.9434 179.631 43.2255 180.334 39C188.396 42.3781 190.788 43.9469 190.788 45.7562C190.788 47.199 190.165 47.5655 187.421 48.0464C186.446 50.3366 185.471 52.3864 184.496 54.4476H193.351L193.374 54.4591ZM188.589 123.143C181.502 134.732 175.119 141.133 166.003 145.839C165.561 146.08 164.937 144.992 165.3 144.637C170.708 138.843 175.663 130.758 179.031 122.307C180.187 119.41 181.162 116.387 181.865 113.501C190.017 117.841 192.138 119.421 192.138 121.105C192.138 122.433 191.344 122.8 188.6 123.155L188.589 123.143ZM206.39 122.181C206.39 130.506 206.651 137.629 206.651 141.133C206.651 145.725 205.857 147.649 203.907 149.584C202.308 150.912 199.474 152 197.172 152C195.936 152 195.755 151.76 195.403 149.343C194.87 145.725 193.544 143.915 185.663 141.018C185.221 140.892 185.312 139.324 185.754 139.324C191.072 139.805 194.882 140.045 196.911 140.045C198.147 140.045 198.238 139.805 198.238 137.995V109.505H176.355C174.677 109.505 172.987 109.745 170.685 110.226L169.71 105.76C172.284 106.482 174.223 106.722 176.173 106.722H220.291C224.282 99.9659 225.336 98.9926 225.96 98.9926C226.754 98.9926 227.729 99.9545 231.72 104.42C233.489 106.356 234.203 107.444 234.203 108.279C234.203 109.115 233.942 109.482 233.047 109.482H206.379V122.158L206.39 122.181ZM180.799 83.19C180.799 84.2779 180.618 85.3657 180.266 86.2131C182.477 82.9495 184.609 79.4569 186.559 75.8269C186.026 76.1934 185.584 76.4338 185.051 76.4338C183.895 76.4338 183.452 75.7124 182.749 72.9298C181.332 68.4638 180.539 66.5286 178.849 64.3643C176.547 67.8684 174.064 71.006 171.32 73.7772C177.613 75.1055 180.799 78.4836 180.799 83.19ZM183.101 57.2417C182.035 59.2914 180.89 61.2267 179.733 63.036C185.754 63.8834 188.419 66.6545 188.419 71.2465C188.419 71.6129 188.419 71.8534 188.328 72.2083C190.63 67.5019 192.58 62.4291 194.179 57.2417H183.101ZM205.948 89.7057C209.406 83.7855 210.46 82.8236 211.084 82.8236C211.878 82.8236 212.853 83.7855 216.402 87.656C218.001 89.3507 218.703 90.4271 218.703 91.2745C218.703 92.1219 218.443 92.4769 217.547 92.4769H193.272C191.764 92.4769 190.255 92.7174 188.226 93.1983L187.251 88.7324C189.553 89.4538 191.321 89.6943 193.101 89.6943H205.948V89.7057ZM226.946 52.5353C229.962 47.9548 230.665 47.2219 231.38 47.2219C232.264 47.2219 232.888 47.9434 236.255 52.2948C237.763 54.23 238.296 55.1919 238.296 56.1538C238.296 57.6081 237.673 58.0891 235.462 58.4441C230.949 66.2881 227.139 70.9945 221.289 75.8269C227.4 83.4305 235.11 88.8583 244.668 92.4883C245.111 92.6143 245.111 93.6907 244.668 93.8167C241.743 94.6641 240.507 96.5879 239.351 101.787C238.818 104.558 238.557 105.05 237.752 105.05C237.128 105.05 235.269 104.443 233.058 102.52C226.232 96.7253 220.211 89.2477 215.79 80.4303C211.98 72.8267 208.612 63.2879 205.778 50.9779C205.596 50.1305 205.154 49.4091 204.803 49.1686C204.179 48.6877 203.737 47.7258 203.737 47.2334C203.737 46.6265 206.129 45.1836 207.195 45.1836C207.728 45.1836 208.079 45.5501 208.079 46.1455C208.079 46.512 207.637 47.7143 207.637 48.1953C207.637 49.0427 207.898 50.4855 208.431 52.0543C210.29 57.9746 215.336 67.8684 219.588 73.6626C222.513 68.2348 225.518 60.6312 226.856 55.3179H218.352C216.674 55.3179 214.985 55.5584 212.683 56.2798L211.708 51.5734C214.191 52.2948 215.96 52.5353 217.819 52.5353H226.946ZM229.43 143.778C227.298 143.778 226.153 142.45 224.554 137.858C221.187 128.559 218.703 123.979 212.955 117.337C212.603 116.971 212.955 116.009 213.397 116.135C225.62 119.513 234.124 127.724 234.124 136.415C234.124 140.64 232.173 143.778 229.43 143.778Z" fill="#E72410"/>
<path d="M30.8329 103.009C36.732 104.953 37.3494 105.551 37.3494 106.885C37.3494 107.977 36.9035 108.46 34.5827 109.185C33.954 110.392 33.2451 111.611 32.6164 112.704H51.9143C55.6641 108.092 56.3844 107.368 57.0932 107.368C57.9849 107.368 58.7051 108.092 62.3635 112.221C64.0555 114.164 64.5928 115.004 64.5928 115.982C64.5928 117.925 64.147 118.282 60.7515 119.374C57.0017 124.71 52.886 129.437 48.4274 133.439C50.1194 134.163 51.8228 134.773 53.6977 135.256C61.9176 137.682 71.7381 138.89 83.7078 138.89C84.1537 138.89 84.0622 140.097 83.6164 140.224C80.6668 141.431 79.1463 143.743 78.0831 148.469C77.5458 151.379 77.1914 151.988 75.6708 151.988C74.6877 151.988 72.5498 151.62 70.0461 151.022C62.7179 149.205 55.5727 146.664 48.7018 142.903C46.381 141.569 44.1517 140.12 42.0938 138.545C30.7529 146.549 17.0797 150.907 0.55987 152C0.114006 152 -0.240399 150.539 0.205465 150.424C14.4045 146.664 26.7287 140.73 36.3776 133.094C33.0737 129.218 30.0326 124.848 27.6204 120.007C20.8295 128.609 12.4382 135.164 2.88065 138.671C2.43479 138.798 2.08038 137.947 2.43479 137.579C11.3635 130.184 17.5256 122.422 22.533 113.704C24.4993 110.427 26.0199 106.425 27.1745 103.032H22.9788V103.515C22.9788 106.54 21.4583 108 17.617 108C15.0219 108 14.2216 106.551 14.2216 103.642C14.2216 99.5248 14.6675 95.6377 14.6675 75.156C14.6675 67.6349 14.576 63.7593 14.3131 56.2497C18.7831 58.4347 19.492 58.7913 23.7791 61.9423H33.3366C34.0454 58.1817 34.5027 54.3062 34.8571 50.4306H11.535C9.03129 50.4306 6.52759 50.6721 3.22362 51.1551L2.24044 46.6701C5.99027 47.3946 8.75691 47.6361 11.5236 47.6361H67.1651C71.4523 40.966 72.5269 40 73.1443 40C73.9446 40 75.0192 40.966 79.3064 45.3361C81.2727 47.3946 81.9815 48.3606 81.9815 49.2116C81.9815 50.0626 81.7186 50.4191 80.8154 50.4191H44.9062C42.6769 54.6627 40.0817 58.4232 37.2236 61.9308H59.1967C62.2378 57.5722 62.9466 56.8362 63.6668 56.8362C64.5585 56.8362 65.3588 57.5607 68.7542 60.9533C70.2747 62.5288 70.8121 63.3798 70.8121 64.3458C70.8121 65.4383 70.3662 66.1628 68.2169 67.9799V73.9255C68.2169 89.4392 68.5713 99.8698 68.5713 103.377C68.5713 106.287 67.0508 107.862 63.2095 107.862C60.9802 107.862 60.0885 106.528 60.0885 104.102V103.009H30.7986H30.8329ZM60.1228 64.7023H22.9674V74.397H60.1228V64.7023ZM60.1228 77.1915H22.9674V86.8861H60.1228V77.1915ZM60.1228 89.6807H22.9674V100.226H60.1228V89.6807ZM30.8329 115.499C30.1241 116.465 29.4953 117.442 28.7751 118.408C32.1705 123.02 36.2747 126.654 40.5619 129.437C45.112 125.193 48.9533 120.593 51.9943 115.499H30.8215H30.8329Z" fill="#E72410"/>
<path d="M147.993 54.6729C151.183 49.9542 151.898 49.2309 152.602 49.2309C153.487 49.2309 154.202 49.9542 159.162 55.5225C161.467 58.1862 162 59.0358 162 60.0002C162 61.5731 160.581 62.6638 158.368 62.5375C155.53 62.4113 155.269 62.5375 153.135 64.719C151.898 65.8097 150.559 66.7741 147.46 68.5881C147.017 68.8292 146.665 68.4618 146.836 67.8648C148.073 63.3872 148.164 62.9049 148.97 57.4514H94.5208C94.8727 67.0152 92.0351 73.6628 87.5175 73.6628C84.8615 73.6628 83 70.9992 83 67.2448C83 64.4664 83.7037 62.8935 85.8376 61.4354C90.446 58.1632 91.6945 55.7522 92.3075 48.0024C92.3983 47.3939 93.1928 47.2791 93.2836 47.8761C93.8171 50.1723 94.169 52.48 94.3506 54.65H117.233V46.9002C117.233 45.5684 117.233 43.2721 117.052 40C127.699 41.3318 128.584 42.6636 128.584 43.8692C128.584 45.0747 127.699 45.9243 125.928 46.6476V54.6385H148.005L147.993 54.6729ZM102.773 123.411C102.864 134.547 102.864 140.598 102.864 146.522C102.864 149.553 101.263 151 97.8919 151C95.4062 151 94.3506 149.909 94.3506 147.246C94.3506 141.069 94.7024 134.777 94.7024 109.725C94.7024 100.644 94.6116 91.5734 94.3506 82.377C98.4254 84.4321 99.9351 85.5229 103.397 88.0602H117.143V71.9636C117.143 68.0944 117.052 64.2138 116.7 60.712C127.347 61.8028 128.311 62.7672 128.311 63.7316C128.311 64.8223 127.335 65.7867 125.474 66.51V88.0487H129.106C131.41 82.8477 133.181 78.3701 134.781 73.6513C135.848 70.5055 136.734 67.3596 137.528 63.8464C145.156 68.5652 147.642 70.6203 147.642 72.3195C147.642 73.8924 146.756 74.5009 143.476 74.3746C139.401 80.4252 136.473 84.0533 132.125 88.0487H139.129C142.148 83.4448 142.852 82.7215 143.567 82.7215C144.452 82.7215 145.167 83.4448 148.357 86.958C149.775 88.5309 150.309 89.3805 150.309 90.345C150.309 91.4357 149.866 92.2853 148.175 93.7319V101.114C148.175 128.589 148.527 133.916 148.527 138.267C148.527 142.986 147.732 146.132 145.428 148.072C143.919 149.519 141.353 150.495 139.049 150.495C137.63 150.495 137.278 150.013 136.836 147.475C136.132 143.124 135.065 141.184 126.995 138.279C126.552 138.153 126.643 136.706 127.086 136.706C131.342 137.188 134.532 137.429 138.436 137.429C139.594 137.429 139.855 136.947 139.855 135.374V123.388H102.784L102.773 123.411ZM106.496 85.1669C104.282 85.1669 103.567 84.0762 102.682 77.9108C102.058 72.8247 101.263 70.6547 98.7773 65.9245C98.5162 65.4423 98.7773 64.5927 99.22 64.8338C107.994 68.7029 111.365 72.3425 111.365 78.2668C111.365 82.1359 109.231 85.1669 106.484 85.1669H106.496ZM139.832 90.8616H102.761V103.927H139.832V90.8616ZM102.773 120.632H139.844V106.717H102.773V120.632Z" fill="#E72410"/>
<path d="M169.681 162.074C170.993 160.318 173.491 159.491 175.934 159.491C181.896 159.491 185 162.459 185 166.57C185 170.681 181.145 174 174.758 174C168.37 174 164 170.557 164 165.03C164 159.503 167.945 155.969 173.536 152.967C175.744 151.79 179.688 150.317 181.38 150C181.75 150 181.986 150 182.647 150.612C183.252 151.155 183.017 151.563 182.557 151.563C179.644 151.631 177.346 152.299 175.609 153.16C172.326 154.791 170.118 157.849 169.412 162.062H169.693L169.681 162.074ZM170.006 163.387C169.625 163.965 169.401 164.373 169.401 165.37C169.401 170.512 171.463 173.026 174.758 173.026C178.052 173.026 179.453 170.217 179.453 166.615C179.453 163.365 178.086 160.748 174.612 160.748C172.55 160.748 170.993 161.768 170.006 163.399V163.387Z" fill="#E72410"/>
<path d="M72.1348 169.876C76.1683 169.876 77.1308 169.685 78.0934 169.114C79.1934 168.454 79.9153 167.726 80.7404 166.685C80.9352 166.461 81.0727 166.427 81.5081 166.528C81.9435 166.617 82.0352 166.718 81.9894 166.942C81.4164 168.555 80.2132 171.354 79.3997 173C76.1339 172.933 73.5901 172.933 70.1295 172.933C66.669 172.933 63.7928 172.933 60.6188 173C60.1375 173 60 172.966 60 172.463C60 171.959 60.0458 171.891 60.2865 171.578C62.7845 168.611 64.6523 166.908 68.6857 163.504C72.7651 160.067 75.0797 158.398 75.0797 155.464C75.0797 152.844 73.6818 150.952 70.9546 150.952C68.6514 150.952 67.5399 151.803 66.9669 152.777C66.6805 153.247 66.5315 154.065 66.5315 155.084C66.5315 155.968 64.7096 156.562 62.9334 156.562C61.5928 156.562 60.6302 156.304 60.6302 155.364C60.6302 153.348 64.5262 150 70.9546 150C77.3829 150 80.9008 152.519 80.9008 155.588C80.9008 159.63 76.4777 161.142 71.6306 164.109C66.3023 167.289 65.0991 168.275 63.6553 169.876H72.1577H72.1348Z" fill="#E72410"/>
<path d="M116 161.954C116 169.346 112.09 174 105.551 174C99.0112 174 95 169.563 95 162.148C95 154.734 98.8652 150 105.551 150C112.236 150 116 154.631 116 161.954ZM100.506 162.057C100.506 168.741 101.494 173.008 105.551 173.008C109.607 173.008 110.494 168.73 110.494 162.057C110.494 155.384 109.551 151.004 105.551 151.004C101.551 151.004 100.506 155.338 100.506 162.057Z" fill="#E72410"/>
<path d="M141.135 169.876C145.168 169.876 146.131 169.685 147.093 169.114C148.193 168.454 148.915 167.726 149.74 166.685C149.935 166.461 150.073 166.427 150.508 166.528C150.944 166.617 151.035 166.718 150.989 166.942C150.416 168.555 149.213 171.354 148.4 173C145.134 172.933 142.59 172.933 139.13 172.933C135.669 172.933 132.793 172.933 129.619 173C129.138 173 129 172.966 129 172.463C129 171.959 129.046 171.891 129.286 171.578C131.784 168.611 133.652 166.908 137.686 163.504C141.765 160.067 144.08 158.398 144.08 155.464C144.08 152.844 142.682 150.952 139.955 150.952C137.651 150.952 136.54 151.803 135.967 152.777C135.68 153.247 135.531 154.065 135.531 155.084C135.531 155.968 133.71 156.562 131.933 156.562C130.593 156.562 129.63 156.304 129.63 155.364C129.63 153.348 133.526 150 139.955 150C146.383 150 149.901 152.519 149.901 155.588C149.901 159.63 145.478 161.142 140.631 164.109C135.302 167.289 134.099 168.275 132.655 169.876H141.158H141.135Z" fill="#E72410"/>
<path d="M169.248 3.02053C170.4 3.02053 171.269 3.66304 171.269 4.54227C171.269 5.28623 171.039 5.94565 170.613 6.53744C170.366 6.88406 170.007 7.23913 169.564 7.47585C168.941 7.7971 168.43 8 167.824 8C167.296 8 166.937 7.8901 166.955 7.60266C166.972 7.41667 166.827 7.30676 166.596 7.13768C166.4 6.99396 166.119 6.82488 165.837 6.66425C165.752 6.61353 165.718 6.58816 165.718 6.5628C165.718 6.52053 165.769 6.49517 165.863 6.49517C165.957 6.49517 166.025 6.52053 166.093 6.54589C166.52 6.68961 166.767 6.7657 167.296 6.88406C167.526 6.93478 167.79 6.97705 167.969 6.97705C168.217 6.97705 168.43 6.95169 168.643 6.81643C169.052 6.5628 169.317 6.20773 169.564 5.81884C169.828 5.38768 169.99 4.8128 169.99 4.42391C169.99 3.59541 169.743 3.35024 168.941 3.35024C168.745 3.35024 168.285 3.38406 168.02 3.41787C167.227 4.25483 166.264 5.28623 165.522 6.03019C164.865 6.69807 164.226 7.2814 163.765 7.66184C163.663 7.74638 163.433 7.85628 162.989 7.85628C162.657 7.85628 162.316 7.69565 162.316 7.50121C162.316 7.30676 162.46 7.17995 162.648 7.02778C164.192 5.86111 165.343 4.89734 166.562 3.63768C165.872 3.77295 165.198 3.89976 164.635 4.02657C164.405 4.07729 164.209 4.11111 164.123 4.14493C163.995 4.20411 163.791 4.22101 163.663 4.22101C163.347 4.22101 163.023 4.14493 162.674 3.9843C162.341 3.83213 162 3.56159 162 3.38406C162 3.19807 162.102 3.07126 162.264 3.07126C162.409 3.07126 162.426 3.11353 162.495 3.16425C162.793 3.3587 163.134 3.4686 163.399 3.4686C163.927 3.4686 164.405 3.41787 164.925 3.36715C165.582 3.30797 166.255 3.20652 166.98 3.12198C167.569 2.38647 167.816 1.92995 167.816 1.7186C167.816 1.61715 167.765 1.52415 167.551 1.46498C167.372 1.41425 167.142 1.37198 166.861 1.3128C166.716 1.28744 166.596 1.27899 166.596 1.22826C166.596 1.15217 166.724 1.093 166.895 1.06763C167.057 1.04227 167.372 1 167.765 1C168.293 1 169.163 1.21981 169.624 1.49879C169.769 1.58333 169.786 1.65942 169.786 1.74396C169.786 1.87077 169.607 1.95531 169.376 2.02295C169.231 2.06522 169.095 2.19203 169.001 2.29348C168.839 2.47947 168.592 2.72464 168.327 3.01208C168.609 2.98672 169.052 2.98672 169.248 2.98672V3.02053ZM173.555 5.5314C173.359 5.53986 173.146 5.54831 173.026 5.54831C172.864 5.54831 172.83 5.52295 172.83 5.48913C172.83 5.45531 172.83 5.44686 172.992 5.41304C174.553 5.1087 175.132 4.93961 175.132 4.79589C175.132 4.62681 174.97 4.35628 174.604 4.07729C174.015 3.63768 173.538 3.40097 172.566 3.18116C172.387 3.14734 172.25 3.11353 172.25 3.05435C172.25 2.99517 172.335 2.96981 172.514 2.96981C172.549 2.96981 172.583 2.97826 172.642 2.97826C173.649 3.04589 174.749 3.33333 175.508 3.70531C176.54 4.19565 177 4.65217 177 5.3285C177 5.68357 176.557 5.80193 176.258 5.81039C175.977 5.81884 175.746 5.78502 175.533 5.66667C175.354 5.58213 175.218 5.50604 174.928 5.50604C174.305 5.50604 173.922 5.51449 173.563 5.52295L173.555 5.5314Z" fill="#E72410"/>
<path d="M197.416 5.51348C197.841 5.65299 198 5.8007 198 5.93201C198 6.07972 197.894 6.1864 197.761 6.24385C197.629 6.30129 197.337 6.33412 197.133 6.33412C196.93 6.33412 196.726 6.3177 196.284 6.16999C195.736 5.98945 195.241 5.76788 194.206 5.51348C193.383 6.30129 192.402 6.85111 191.358 7.24502C190.88 7.42556 190.252 7.6143 189.103 7.83587C188.678 7.91794 188.147 8 187.979 8C187.873 8 187.794 7.99179 187.794 7.93435C187.794 7.89332 187.811 7.86049 187.962 7.82767C188.333 7.7374 188.66 7.66354 188.899 7.58968C190.244 7.15475 190.659 6.94138 191.34 6.53107C191.95 6.16999 192.463 5.69402 192.861 5.23447C191.446 4.96366 189.996 4.79133 188.528 4.71747C187.794 5.36577 187.166 5.85815 186.529 6.1864C185.883 6.49824 185.335 6.63775 184.654 6.63775C184.106 6.63775 183.716 6.55569 183.442 6.42438C183.186 6.30129 183 6.12075 183 5.84994C183 5.42321 183.513 5.0129 184.654 4.68464C185.459 4.45487 186.458 4.32356 187.608 4.29895C188.457 3.42087 189.094 2.58382 189.571 1.86987C189.607 1.81243 189.465 1.79601 189.333 1.81243C188.006 2.02579 187.44 2.15709 187.201 2.24736C187.015 2.31301 186.812 2.33763 186.688 2.33763C186.467 2.33763 186.122 2.27198 185.866 2.11606C185.521 1.9109 185.167 1.63189 185.167 1.49238C185.167 1.42673 185.185 1.33646 185.291 1.2626C185.344 1.22157 185.441 1.16413 185.529 1.16413C185.636 1.16413 185.698 1.22157 185.804 1.32005C186.025 1.47597 186.21 1.62368 186.67 1.62368C187.042 1.62368 187.493 1.58265 188.43 1.45955C189.147 1.36928 189.571 1.24619 189.695 1.13951C189.784 1.06565 189.952 1 190.226 1C190.633 1 191.031 1.10668 191.42 1.22978C191.606 1.28722 191.729 1.36928 191.729 1.47597C191.729 1.61547 191.579 1.67292 191.269 1.92732C190.995 2.14889 190.721 2.40328 190.314 2.83001C189.837 3.32239 189.448 3.74091 188.899 4.31536C190.367 4.35639 191.853 4.47948 193.233 4.66002C193.542 4.14302 193.675 3.78195 193.675 3.52755C193.675 3.28957 193.489 3.18288 192.906 3.068C192.8 3.04338 192.738 3.05979 192.738 3.01055C192.738 2.96131 193.065 2.82181 193.472 2.82181C193.781 2.82181 194.409 2.92849 194.851 3.08441C195.55 3.32239 195.656 3.42907 195.656 3.57679C195.656 3.66706 195.585 3.73271 195.471 3.79015C195.338 3.86401 195.232 3.92145 195.196 3.99531C194.993 4.3728 194.869 4.59437 194.683 4.89801C195.913 5.11958 196.779 5.30832 197.381 5.51348H197.416ZM184.963 4.98828C184.212 5.18523 183.805 5.48066 183.805 5.72685C183.805 5.85815 183.858 5.93201 183.973 6.00586C184.141 6.10434 184.362 6.13716 184.583 6.13716C184.928 6.13716 185.37 6.03869 185.777 5.81712C186.325 5.51348 186.768 5.1442 187.228 4.70926C186.202 4.73388 185.521 4.84877 184.972 4.98828H184.963Z" fill="#E72410"/>
<path d="M211.309 2.26812C211.309 2.52174 211.146 2.95797 210.914 3.38406C210.682 3.83043 210.304 4.36812 209.789 4.89565C209.239 5.50435 208.526 6.21449 207.813 6.65072C207.418 6.90435 206.955 7.08696 206.336 7.08696C205.89 7.08696 205.391 6.96522 204.979 6.67101C204.335 6.24493 204 5.71739 204 4.75362C204 4.23623 204.283 3.62754 204.764 3.15072C205.391 2.50145 206.19 2.04493 207.169 1.67971C208.38 1.23333 209.789 1 211.49 1C213.431 1 214.822 1.31449 215.913 1.82174C217.218 2.44058 218 3.28261 218 4.5C218 5.4029 217.339 6.15362 216.36 6.67101C215.449 7.14783 214.685 7.40145 213.723 7.60435C212.58 7.84783 211.189 7.97971 210.064 8C209.798 8 209.669 7.97971 209.669 7.89855C209.669 7.81739 209.772 7.7971 210.004 7.76667C212.108 7.49275 213.517 7.01594 214.59 6.38696C215.698 5.71739 216.196 5.04783 216.196 3.94203C216.196 3.1913 215.784 2.44058 214.625 1.96377C213.714 1.58841 212.701 1.43623 211.773 1.39565C211.507 1.38551 210.974 1.38551 210.648 1.39565C210.983 1.61884 211.309 1.96377 211.309 2.25797V2.26812ZM206.972 2.3087C206.173 2.73478 205.761 3.15072 205.46 3.60725C205.28 3.87101 205.16 4.21594 205.16 4.61159C205.16 5.05797 205.263 5.42319 205.606 5.74783C205.838 5.96087 206.156 6.09275 206.388 6.09275C206.671 6.09275 206.937 5.9913 207.616 5.42319C208.612 4.60145 209.574 3.51594 210.004 2.84638C210.253 2.48116 210.382 2.20725 210.382 1.95362C210.382 1.7 210.253 1.56812 210.064 1.47681C208.707 1.58841 207.599 1.98406 206.98 2.31884L206.972 2.3087Z" fill="#E72410"/>
<path d="M227.811 5.68404C228.348 5.0836 228.643 4.71476 229.068 4.18295C229.137 4.09717 229.198 4.06286 229.284 4.06286C229.354 4.06286 229.371 4.09717 229.371 4.14006C229.371 4.2001 229.336 4.29446 229.206 4.57752C229.024 4.97209 228.92 5.238 228.738 5.62399C228.617 5.89848 228.504 6.1215 228.504 6.30163C228.504 6.40456 228.522 6.50749 228.556 6.61042C228.591 6.72193 228.608 6.78197 228.608 6.86775C228.608 7.0393 228.461 7.24517 228.054 7.24517C227.672 7.24517 227.282 7.09077 226.901 6.80771C226.364 6.40456 226 5.8899 226 4.98067C226 4.37166 226.165 3.65113 226.364 3.01639C226.494 2.63039 226.546 2.51031 226.598 2.34733C226.685 2.10716 226.745 1.96134 226.745 1.71259C226.745 1.46383 226.529 1.25797 226.208 1.05211C226.121 0.992064 226.061 0.966331 226.061 0.923442C226.061 0.871977 226.191 0.837666 226.295 0.837666C226.763 0.837666 227.499 1.10357 227.915 1.34375C228.314 1.57534 228.548 1.83267 228.548 2.0128C228.548 2.19293 228.4 2.27871 228.262 2.37306C228.158 2.44169 227.958 2.57893 227.863 2.73333C227.378 3.53962 227.092 4.13148 227.092 4.72334C227.092 5.0836 227.144 5.42671 227.412 5.71835C227.516 5.80412 227.698 5.80412 227.811 5.68404ZM237.256 2.42453C237.49 2.36449 237.811 2.34733 238.279 2.38164C238.764 2.41595 239.163 2.55319 239.163 2.81052C239.163 2.98208 238.981 3.03354 238.565 3.05928C238.314 3.07643 237.993 3.07643 237.542 3.08501C237.075 3.09359 236.737 3.11074 236.355 3.13647C236.373 3.64256 236.373 4.20868 236.373 4.56894C236.373 5.61541 235.957 6.21585 235.307 6.68762C234.518 7.25374 233.149 7.69978 231.243 7.94853C230.974 7.98285 230.723 8 230.61 8C230.463 8 230.393 7.98284 230.393 7.9228C230.393 7.86276 230.558 7.8456 230.714 7.81129C232.282 7.49392 233.522 6.91922 234.111 6.37025C234.683 5.83843 234.943 5.15222 234.917 4.29446C234.917 3.98566 234.934 3.49674 234.917 3.26514C234.336 3.30803 233.712 3.35092 233.496 3.36807C232.915 3.41096 232.577 3.45385 232.239 3.45385C231.641 3.45385 231.069 3.32518 230.497 3.05928C230.246 2.94777 230.159 2.88772 230.159 2.8191C230.159 2.77621 230.211 2.75048 230.289 2.75048C230.376 2.75048 230.454 2.77621 230.523 2.79337C230.844 2.86199 231.425 2.91346 232.049 2.91346C232.534 2.91346 233.539 2.83626 234.925 2.71617C234.925 2.42453 234.908 2.04711 234.891 1.6697C234.873 1.46383 234.873 1.34375 234.726 1.22366C234.657 1.16362 234.44 1.11215 234.241 1.06926C234.042 1.03495 233.825 1.0178 233.643 1.00064C233.539 0.992063 233.461 0.983486 233.461 0.93202C233.461 0.897709 233.513 0.846244 233.73 0.760467C233.981 0.674691 234.25 0.614647 234.631 0.614647C234.969 0.614647 235.35 0.674691 235.818 0.820511C236.321 0.974908 236.771 1.15504 236.771 1.35232C236.771 1.4381 236.737 1.49814 236.589 1.57534C236.485 1.63539 236.425 1.71259 236.407 1.81552C236.355 2.11573 236.338 2.33875 236.338 2.55319C236.737 2.51031 237.005 2.48457 237.239 2.41595L237.256 2.42453ZM238.825 0.871976C239.31 1.06068 239.458 1.19793 239.458 1.38664C239.458 1.53246 239.31 1.69543 238.92 1.69543C238.721 1.69543 238.504 1.6697 238.305 1.48957C237.924 1.15504 237.638 0.949175 237.17 0.709001C237.101 0.674691 236.971 0.631802 236.971 0.597492C236.971 0.563181 237.005 0.554604 237.057 0.546026C237.127 0.546026 237.291 0.546026 237.343 0.546026C237.924 0.614647 238.426 0.726156 238.816 0.871976H238.825ZM240.367 0.297274C240.731 0.408784 241 0.571759 241 0.751889C241 0.93202 240.801 1.06068 240.445 1.06068C240.229 1.06068 240.029 1.02637 239.83 0.863399C239.449 0.554604 239.076 0.357318 238.574 0.16861C238.504 0.142877 238.357 0.0999884 238.357 0.0656778C238.357 0.0399448 238.374 0.0227896 238.409 0.0142119C238.478 -0.00294338 238.556 -0.00294338 238.695 0.00563426C239.345 0.0399448 239.795 0.117144 240.367 0.297274Z" fill="#E72410"/>
<path d="M171.174 19.6986C171.174 19.9178 170.97 20.0365 170.464 20.1461C169.916 20.2466 169.018 20.3653 167.957 20.5023C167.009 21.7443 166.038 22.968 165.229 23.9269C164.927 24.274 164.739 24.4384 164.552 24.5205C164.429 24.5662 164.233 24.5936 164.111 24.5936C163.857 24.5936 163.686 24.5388 163.588 24.4749C163.49 24.4201 163.351 24.3379 163.351 24.1735C163.351 24.0091 163.653 23.7626 163.915 23.5525C164.878 22.7123 165.817 21.8174 166.715 20.6758C166.307 20.7032 165.564 20.758 165.172 20.758C164.715 20.758 164.356 20.7306 164.07 20.6393C163.661 20.5205 163.31 20.3288 163.065 20.0365C163.016 19.9726 163 19.9269 163 19.8721C163 19.8174 163.082 19.8174 163.122 19.8174C163.171 19.8174 163.204 19.8265 163.31 19.8721C163.563 19.9817 163.8 20.0639 164.07 20.1005C164.445 20.1461 164.698 20.1461 164.903 20.1461C165.466 20.1461 166.307 20.0731 167.189 19.9635C167.646 19.2785 167.753 18.9772 167.753 18.7671C167.753 18.5388 167.63 18.484 166.732 18.2922C166.65 18.274 166.593 18.2466 166.593 18.21C166.593 18.1735 166.658 18.1187 166.764 18.0913C166.985 18.0274 167.205 18 167.508 18C168.014 18 168.781 18.1553 169.206 18.3105C169.565 18.4384 169.582 18.5479 169.582 18.6575C169.582 18.758 169.516 18.8402 169.361 18.9041C169.124 19.0046 168.953 19.1689 168.512 19.7808C169.092 19.6804 169.329 19.5982 169.631 19.4977C169.916 19.4064 170.178 19.379 170.341 19.379C170.888 19.3973 171.19 19.589 171.19 19.7169L171.174 19.6986ZM171.672 20.8493C171.403 20.8402 171.06 20.8493 170.872 20.8493C170.733 20.8584 170.635 20.8676 170.553 20.8676C170.455 20.8676 170.382 20.8493 170.382 20.8037C170.382 20.7489 170.464 20.7123 170.586 20.6849C171.149 20.5297 171.811 20.4932 172.35 20.4932C173.297 20.4932 174.432 20.6484 175.216 20.9132C175.812 21.1142 176 21.3333 176 21.5251C176 21.7443 175.829 21.8904 175.404 21.8904C175.2 21.8904 174.898 21.8082 174.742 21.7352C174.097 21.4429 173.738 21.4064 173.42 21.4064C173.077 21.4064 172.897 21.4429 172.66 21.5251C172.219 21.6712 172.031 21.8539 172.031 22.1918C172.031 22.4292 172.17 23.0868 172.611 23.9543C175.224 24.4475 175.918 24.8311 175.918 25.2055C175.918 25.4064 175.763 25.6073 175.257 25.6256C175.02 25.6347 174.677 25.5799 174.277 25.3607C174.04 25.242 173.534 24.9498 172.685 24.6941C172.701 25.1416 172.399 25.5342 171.835 25.7352C171.313 25.9361 170.684 26 169.867 26C169.051 26 168.34 25.8265 167.932 25.6438C167.524 25.4612 167.254 25.2055 167.254 24.9224C167.254 24.5845 167.573 24.3014 167.965 24.137C168.577 23.8904 169.32 23.7991 169.998 23.7991C170.268 23.7991 170.831 23.7991 171.223 23.8447C171.158 23.3425 171.101 22.8402 171.101 22.4292C171.101 21.6164 172.236 21.2603 173.354 21.1233C172.832 20.9315 172.219 20.8584 171.672 20.8402V20.8493ZM169.769 24.2831C169.157 24.2831 168.618 24.3196 168.308 24.4384C168.055 24.5297 167.883 24.6941 167.883 24.8402C167.883 25.032 168.055 25.1781 168.308 25.2785C168.594 25.3699 169.035 25.4338 169.508 25.4338C170.047 25.4338 170.643 25.3699 170.929 25.2055C171.198 25.0411 171.305 24.8584 171.305 24.5936C171.305 24.5571 171.305 24.5114 171.288 24.4566C170.643 24.3379 170.202 24.2922 169.761 24.2922L169.769 24.2831Z" fill="#E72410"/>
<path d="M191.86 20C193.316 20 194.263 20.1421 195.325 20.5267C196.509 20.9698 197 21.4464 197 22.2155C197 23.1268 195.904 23.7288 194.684 24.0883C193.553 24.4311 192.57 24.5983 191.456 24.732C190.105 24.8909 188.228 25.0079 187.061 24.9996C186.772 24.9996 186.623 24.9578 186.623 24.8993C186.623 24.8491 186.711 24.8156 187.026 24.7989C188.851 24.6986 190.412 24.4561 191.93 24.0716C193.895 23.5616 195.246 22.7506 195.246 21.9396C195.246 21.4296 194.939 21.1203 194.351 20.8444C193.763 20.5685 192.93 20.4013 191.711 20.4013C190.237 20.4013 188.579 20.8277 186.482 21.5885C185.518 21.9396 185.316 22.065 185.114 22.1905C184.825 22.366 184.623 22.3995 184.272 22.3995C183.728 22.3995 182.982 22.1654 182.526 21.8895C182.158 21.6721 182 21.5383 182 21.3795C182 21.229 182.07 21.1287 182.184 21.1287C182.237 21.1287 182.316 21.1454 182.456 21.2039C182.86 21.3628 183.114 21.4547 183.474 21.4547C183.605 21.4547 183.816 21.438 184.018 21.3962C184.184 21.3628 184.491 21.3042 185 21.1788C186.491 20.8277 187.5 20.6103 188.009 20.5016C189.395 20.2007 190.746 20.0084 191.851 20.0084L191.86 20Z" fill="#E72410"/>
<path d="M217.121 24.8249C217.689 25.0096 218 25.1942 218 25.3873C218 25.5635 217.698 25.765 217.368 25.765C217.011 25.765 216.608 25.6978 216.26 25.5719C215.041 25.1355 214.015 24.7998 212.705 24.6067C212.724 24.6739 212.724 24.7158 212.724 24.7914C212.724 25.5216 211.698 26 209.6 26C208.748 26 207.676 25.9496 206.953 25.723C206.348 25.53 206 25.3034 206 24.9592C206 24.6571 206.476 24.3549 207.063 24.2122C207.915 24.0024 209.005 23.9269 209.838 23.9269C210.351 23.9269 210.827 23.9269 211.13 23.952C210.992 22.6091 210.919 21.6942 210.937 20.4185C210.937 20.0156 210.956 19.7218 210.727 19.5791C210.635 19.5204 210.479 19.4532 210.25 19.4197C209.966 19.3777 209.792 19.3609 209.682 19.3525C209.545 19.3441 209.435 19.3189 209.435 19.2854C209.435 19.2266 209.573 19.1847 209.646 19.1511C209.948 19.0588 210.26 19 210.653 19C211.111 19 211.716 19.0923 212.421 19.3525C213.053 19.5791 213.09 19.6631 213.09 19.7722C213.09 19.8561 213.072 19.94 212.843 20.0408C212.632 20.1331 212.403 20.5528 212.366 20.9472C212.366 21.0228 212.44 21.0564 212.724 21.0564C213.063 21.0564 213.356 21.0228 213.869 20.9221C214.253 20.8549 214.482 20.7878 214.84 20.6703C215.224 20.536 215.582 20.4856 215.921 20.4856C216.681 20.4856 217.194 20.6283 217.194 20.8465C217.194 21.006 217.038 21.1067 216.773 21.1487C216.452 21.2074 215.976 21.2914 215.115 21.3837C214.446 21.4592 213.896 21.518 213.511 21.518C213.072 21.518 212.577 21.4341 212.311 21.3082C212.293 22.2398 212.385 23.0288 212.632 24.0276C214.455 24.2038 215.957 24.464 217.084 24.8333L217.121 24.8249ZM209.618 24.3969C208.666 24.3969 208.061 24.4221 207.521 24.4976C206.971 24.5731 206.687 24.7494 206.687 24.9005C206.687 25.0935 206.861 25.1691 207.044 25.2446C207.429 25.3873 208.034 25.4544 209.197 25.4544C209.939 25.4544 210.452 25.3453 210.791 25.1859C210.965 25.1103 211.093 24.9844 211.13 24.8921C211.166 24.7914 211.185 24.5647 211.185 24.4892C210.653 24.4388 210.232 24.4053 209.609 24.4053L209.618 24.3969Z" fill="#E72410"/>
<path d="M231.026 23.4478C230.926 23.6384 230.8 23.8835 230.8 23.947C230.8 24.0197 230.834 24.1104 230.918 24.2012C230.984 24.2648 231.194 24.4372 231.194 24.6097C231.194 24.7912 230.984 25 230.533 25C229.973 25 229.437 24.8729 228.869 24.5915C228.141 24.2375 227.355 23.6566 227.062 22.7489C226.903 22.3132 226.836 21.7231 226.836 21.2057C226.836 20.7973 226.87 20.3616 226.836 19.8986C226.82 19.6899 226.677 19.4902 226.125 19.1906C226.042 19.1452 226 19.1452 226 19.0908C226 19.0182 226.067 19 226.368 19C226.736 19 227.204 19.1452 227.622 19.3359C228.25 19.6172 228.609 19.8986 228.609 20.1619C228.609 20.2799 228.593 20.407 228.45 20.534C228.275 20.8154 228.158 21.2874 228.158 21.8865C228.158 22.4856 228.317 22.885 228.542 23.2027C228.735 23.475 229.011 23.6657 229.303 23.6657C229.429 23.6657 229.579 23.6021 229.722 23.4932C230.257 23.0847 230.708 22.6581 231.67 21.8411C231.812 21.7322 231.93 21.6505 232.022 21.6505C232.114 21.6505 232.197 21.6687 232.197 21.7141C232.197 21.7595 232.164 21.823 232.13 21.8684C231.628 22.5129 231.26 23.0121 231.035 23.4478H231.026ZM237.048 20.4705C238.076 20.7882 238.871 21.2239 239.373 21.7322C239.808 22.177 240 22.6762 240 22.9667C240 23.2572 239.983 23.466 239.741 23.6475C239.565 23.7837 239.431 23.8472 239.13 23.8472C238.829 23.8472 238.662 23.82 238.486 23.6657C238.177 23.4024 237.775 23.239 236.663 23.1936C236.454 23.1936 236.404 23.1573 236.404 23.1029C236.404 23.0484 236.563 23.0303 236.73 23.003C237.198 22.9304 237.667 22.8396 237.943 22.7761C238.219 22.7126 238.219 22.6036 238.219 22.5492C238.219 22.3041 237.926 21.7958 237.382 21.351C236.914 20.9607 236.32 20.643 235.576 20.3888C235.45 20.3434 235.35 20.3162 235.35 20.2526C235.35 20.2073 235.417 20.1891 235.509 20.1891C235.751 20.1891 236.395 20.2708 237.039 20.4705H237.048Z" fill="#E72410"/>
<path d="M188.269 38.6996C187.318 38.6996 186.467 38.4843 185.983 37.9552C185.949 37.9193 185.899 37.8834 185.899 37.8386C185.899 37.8027 185.966 37.7578 186.058 37.7578C186.125 37.7578 186.141 37.7758 186.217 37.8117C186.634 38.0538 187.31 38.1435 188.37 38.1435C189.271 38.1435 190.606 38.0448 191.924 37.9283V37.0135C191.924 36.7444 191.908 36.6188 191.766 36.5471C191.624 36.4843 191.457 36.4574 191.282 36.4395C191.14 36.4215 191.04 36.4126 190.881 36.4036C190.815 36.4036 190.781 36.3857 190.781 36.3408C190.781 36.287 190.848 36.2422 190.99 36.1614C191.132 36.0807 191.424 36 191.682 36C192.133 36 192.584 36.0897 193.018 36.2332C193.643 36.4305 193.76 36.5919 193.76 36.7085C193.76 36.843 193.618 36.9148 193.518 36.9686C193.376 37.0404 193.226 37.1031 193.193 37.3184C193.159 37.5426 193.126 37.6592 193.109 37.8296C193.769 37.7758 194.303 37.722 194.812 37.6592C195.196 37.6143 195.454 37.5874 195.796 37.4888C195.972 37.435 196.089 37.3991 196.648 37.3991C197.29 37.3991 197.899 37.6413 197.899 37.8744C197.899 38.1525 197.674 38.2063 196.756 38.2511C195.58 38.3049 194.178 38.3857 193.068 38.4664C193.051 38.9148 193.051 39.3722 193.068 39.8655C193.71 39.8117 194.178 39.7578 194.578 39.6682C194.82 39.6143 194.787 39.5516 194.645 39.3722C194.595 39.3004 194.436 39.1749 194.244 39.0224C194.178 38.9417 194.278 38.8969 194.436 38.9686C194.745 39.0852 195.096 39.2108 195.388 39.3004C195.713 39.3991 195.872 39.3812 196.03 39.3812C196.548 39.3812 196.848 39.4978 196.848 39.713C196.848 39.9103 196.464 39.991 195.913 40.1076C195.137 40.2691 194.077 40.4126 193.109 40.4843C193.126 40.8879 193.235 41.5516 193.285 41.9283C194.703 42.1076 195.988 42.4933 196.781 42.7444C197.34 42.9238 197.824 43.139 197.824 43.4798C197.824 43.6861 197.566 43.8924 197.165 43.8924C196.99 43.8924 196.798 43.8744 196.523 43.7399C195.204 43.1121 194.253 42.7892 193.402 42.6099C193.485 43.4529 192.692 44 190.698 44C190.072 44 189.137 43.9372 188.495 43.6861C188.044 43.5067 187.66 43.2646 187.66 42.8789C187.66 42.583 187.986 42.3318 188.528 42.1345C188.945 41.9821 189.479 41.9103 190.172 41.8565C190.656 41.8206 191.382 41.8296 192.025 41.8565C192.025 41.417 192.008 40.9686 191.975 40.574C191.524 40.5919 190.865 40.5919 190.573 40.5919C188.854 40.5919 188.094 40.287 188.094 39.8206C188.094 39.4798 188.478 39.2197 188.753 39.0493C188.945 38.9417 189.237 38.8251 189.605 38.6816C189.312 38.6906 188.737 38.6996 188.303 38.6996H188.269ZM190.022 42.3049C189.488 42.3318 189.054 42.3677 188.687 42.4843C188.428 42.574 188.253 42.7085 188.253 42.87C188.253 43.0224 188.461 43.1928 188.812 43.2915C189.162 43.3901 189.68 43.4081 190.306 43.4081C190.931 43.4081 191.449 43.3274 191.741 43.148C192.05 42.9507 192.016 42.6457 192.016 42.4126C191.274 42.3229 190.614 42.278 190.022 42.3139V42.3049ZM189.296 39.0762C189.054 39.2287 188.812 39.3722 188.812 39.5874C188.812 39.8206 189.196 40 190.197 40C190.664 40 191.274 39.9821 191.933 39.9462C191.933 39.4529 191.933 39.0583 191.916 38.565C191.349 38.6009 190.931 38.6368 190.289 38.6816C189.922 38.7713 189.529 38.9417 189.304 39.0762H189.296Z" fill="#E72410"/>
<path d="M215.756 38C217.213 38 218.161 38.1421 219.223 38.5267C220.408 38.9698 220.899 39.4464 220.899 40.2155C220.899 41.1268 219.802 41.7288 218.582 42.0883C217.45 42.4311 216.467 42.5983 215.352 42.732C214.001 42.8909 212.122 43.0079 210.964 42.9996C210.674 42.9996 210.525 42.9578 210.525 42.8993C210.525 42.8491 210.613 42.8156 210.929 42.7989C212.754 42.6986 214.317 42.4561 215.835 42.0716C217.801 41.5616 219.153 40.7506 219.153 39.9396C219.153 39.4296 218.846 39.1203 218.258 38.8444C217.669 38.5685 216.836 38.4013 215.616 38.4013C214.141 38.4013 212.482 38.8277 210.384 39.5885C209.419 39.9396 209.217 40.065 209.015 40.1905C208.726 40.366 208.524 40.3995 208.173 40.3995C207.628 40.3995 206.882 40.1654 206.426 39.8895C206.057 39.6721 205.899 39.5383 205.899 39.3795C205.899 39.229 205.97 39.1287 206.084 39.1287C206.136 39.1287 206.215 39.1454 206.356 39.2039C206.76 39.3628 207.014 39.4547 207.374 39.4547C207.506 39.4547 207.716 39.438 207.918 39.3962C208.085 39.3628 208.392 39.3042 208.901 39.1788C210.393 38.8277 211.403 38.6103 211.912 38.5016C213.298 38.2007 214.65 38.0084 215.756 38.0084V38Z" fill="#E72410"/>
<path d="M233.384 38.4384C233.728 37.9452 234.062 37.6256 234.388 37.3881C234.794 37.105 235.34 36.9498 235.948 36.9498C236.662 36.9498 237.446 37.1507 238.001 37.6256C238.582 38.1279 238.899 38.8767 238.899 39.589C238.899 40.6575 238.529 41.4429 237.64 42.1096C236.891 42.6667 236.283 42.9589 235.261 43.2877C234.256 43.6073 233.19 43.8082 232.115 43.9543C231.86 43.9909 231.71 44 231.587 44C231.437 44 231.349 43.9817 231.349 43.9087C231.349 43.8447 231.454 43.8356 231.675 43.79C233.666 43.3881 235.128 42.7854 236.01 42.0639C236.855 41.3699 237.164 40.7215 237.164 39.4795C237.164 38.7854 237.04 38.2557 236.794 37.9087C236.521 37.4977 236.133 37.3607 235.657 37.3607C234.794 37.3607 234.159 37.7169 233.278 39.6438C233.076 40.0822 232.952 40.3562 232.935 40.6575C232.917 40.9772 233.023 41.1416 233.023 41.2968C233.023 41.5525 232.838 41.6438 232.38 41.6438C231.869 41.6438 231.41 41.3425 231.19 40.9498C230.952 40.5388 230.935 40.1918 230.935 39.6804C230.935 39.0685 231.137 38.347 231.375 37.6164C231.463 37.3242 231.525 37.0959 231.525 36.8037C231.525 36.5845 231.375 36.4292 231.049 36.2283C230.979 36.1826 230.899 36.1553 230.899 36.1096C230.899 36.0548 231.067 36 231.305 36C231.41 36 231.595 36.0274 231.833 36.1096C232.424 36.3288 232.767 36.5479 233.04 36.8402C233.19 36.9954 233.261 37.1324 233.261 37.2511C233.261 37.3973 233.19 37.4703 233.023 37.5525C232.899 37.6164 232.767 37.7626 232.714 37.8356C232.274 38.5114 232.054 39.0228 232.054 39.4886C232.054 39.7534 232.054 39.9178 232.106 40.0365C232.142 40.1096 232.291 40.1005 232.344 40.0183C232.803 39.2603 233.076 38.8858 233.384 38.4749V38.4384Z" fill="#E72410"/>
</svg>
